<svg id="visual" viewBox="0 0 960 540" width="960" height="540" xmlns="http://www.w3.org/2000/svg" xmlns:xlink="http://www.w3.org/1999/xlink" version="1.1"><rect width="960" height="540" fill="#001220"></rect><g><g transform="translate(350 94)"><path d="M15.4 -5C16.6 -1.3 11.9 4.4 7.1 7.3C2.3 10.2 -2.7 10.4 -6.1 8.1C-9.4 5.7 -11.1 0.8 -9.8 -3.1C-8.5 -6.9 -4.3 -9.7 1.4 -10.2C7.1 -10.6 14.2 -8.8 15.4 -5Z" stroke="#371152" fill="none" stroke-width="3"></path></g><g transform="translate(656 88)"><path d="M1.9 -0.6C2.3 0.6 2.3 1.9 1.6 2.5C0.9 3.1 -0.5 2.9 -1.7 2.1C-2.8 1.4 -3.5 0 -3.2 -1.1C-2.9 -2.1 -1.4 -2.9 -0.3 -2.8C0.8 -2.6 1.5 -1.7 1.9 -0.6Z" stroke="#371152" fill="none" stroke-width="3"></path></g><g transform="translate(510 493)"><path d="M15.9 -4.4C17.3 -0.9 12.8 5.3 7.6 8.6C2.4 11.9 -3.4 12.3 -6.7 9.8C-9.9 7.3 -10.6 1.8 -9 -1.9C-7.5 -5.5 -3.7 -7.4 1.8 -8C7.3 -8.5 14.5 -7.8 15.9 -4.4Z" stroke="#371152" fill="none" stroke-width="3"></path></g><g transform="translate(788 466)"><path d="M8.1 -1.6C9.1 0.6 7.7 4.7 5.3 6.2C2.9 7.8 -0.7 6.8 -3.1 4.8C-5.6 2.9 -6.9 0.1 -6.2 -1.6C-5.5 -3.4 -2.8 -4 0.4 -4.2C3.5 -4.3 7 -3.8 8.1 -1.6Z" stroke="#371152" fill="none" stroke-width="3"></path></g><g transform="translate(217 168)"><path d="M3.4 -1.5C3.6 -0.4 2.5 0.7 1.2 1.7C-0.1 2.6 -1.6 3.4 -2.2 3C-2.8 2.5 -2.6 0.9 -2.1 -0.6C-1.6 -2 -0.8 -3.3 0.4 -3.4C1.6 -3.5 3.2 -2.5 3.4 -1.5Z" stroke="#371152" fill="none" stroke-width="3"></path></g><g transform="translate(389 267)"><path d="M8.5 -3.8C9.1 -0.8 6.5 2.2 3.3 4.5C0.2 6.7 -3.4 8.2 -6.1 6.7C-8.7 5.1 -10.5 0.6 -9.3 -3.2C-8.1 -6.9 -4.1 -9.8 -0.1 -9.8C3.9 -9.8 7.9 -6.8 8.5 -3.8Z" stroke="#371152" fill="none" stroke-width="3"></path></g><g transform="translate(286 480)"><path d="M17.1 -4.7C19.5 1.7 16.8 10.5 11.9 13.4C6.9 16.3 -0.2 13.2 -5.5 9C-10.8 4.8 -14.4 -0.5 -13.2 -5.4C-11.9 -10.2 -6 -14.6 0.7 -14.8C7.4 -15.1 14.8 -11.1 17.1 -4.7Z" stroke="#371152" fill="none" stroke-width="3"></path></g><g transform="translate(882 401)"><path d="M4 -1.4C4.7 0.8 4.4 3.2 2.9 4.3C1.4 5.5 -1.2 5.4 -2.5 4.2C-3.8 3.1 -3.8 0.9 -3.2 -1.1C-2.5 -3.2 -1.3 -5.1 0.2 -5.2C1.7 -5.3 3.4 -3.5 4 -1.4Z" stroke="#371152" fill="none" stroke-width="3"></path></g><g transform="translate(292 115)"><path d="M2.6 -0.5C3 0.5 2.9 2.1 1.9 3C0.8 3.8 -1 3.8 -2.4 2.9C-3.7 2 -4.6 0.1 -4.1 -1C-3.6 -2.1 -1.8 -2.4 -0.4 -2.3C1.1 -2.1 2.1 -1.6 2.6 -0.5Z" stroke="#371152" fill="none" stroke-width="3"></path></g><g transform="translate(685 490)"><path d="M7.2 -2.7C7.9 -0.2 6 2.8 3.3 4.9C0.5 7 -3.1 8.1 -5.3 6.7C-7.6 5.2 -8.4 1.1 -7.2 -2C-6.1 -5.1 -3.1 -7.2 0.1 -7.2C3.2 -7.2 6.5 -5.2 7.2 -2.7Z" stroke="#371152" fill="none" stroke-width="3"></path></g><g transform="translate(223 316)"><path d="M3.8 -1.3C4.2 0 3.3 1.7 1.9 2.9C0.4 4 -1.7 4.6 -3.1 3.7C-4.5 2.8 -5.2 0.4 -4.6 -1.3C-4 -2.9 -2 -3.9 -0.2 -3.9C1.7 -3.9 3.4 -2.7 3.8 -1.3Z" stroke="#371152" fill="none" stroke-width="3"></path></g><g transform="translate(41 79)"><path d="M6 -2.4C6.8 0.5 5.7 3.5 3.1 5.7C0.5 7.9 -3.7 9.4 -5.6 7.9C-7.5 6.5 -7.2 2.1 -5.9 -1.4C-4.6 -5 -2.3 -7.7 0.2 -7.8C2.6 -7.8 5.2 -5.2 6 -2.4Z" stroke="#371152" fill="none" stroke-width="3"></path></g><g transform="translate(383 161)"><path d="M7 -3C7.7 -0.1 6 2.9 3 5.4C0 7.8 -4.2 9.7 -6.7 8.2C-9.1 6.6 -9.8 1.6 -8.4 -2.3C-7 -6.2 -3.5 -8.9 -0.2 -8.9C3.1 -8.8 6.3 -5.9 7 -3Z" stroke="#371152" fill="none" stroke-width="3"></path></g><g transform="translate(620 500)"><path d="M6 -1.2C6.9 0.9 6.2 4.3 4.4 5.5C2.5 6.7 -0.5 5.8 -2.8 4.1C-5.1 2.4 -6.7 -0.2 -6.1 -1.8C-5.5 -3.4 -2.7 -4.2 -0.1 -4.1C2.5 -4.1 5.1 -3.3 6 -1.2Z" stroke="#371152" fill="none" stroke-width="3"></path></g><g transform="translate(925 457)"><path d="M2.8 -1C3.3 0.7 3.2 2.5 2.3 3.2C1.3 4 -0.5 3.6 -1.9 2.6C-3.2 1.6 -4.1 0 -3.7 -1.5C-3.3 -3 -1.6 -4.5 -0.3 -4.4C1.1 -4.3 2.3 -2.7 2.8 -1Z" stroke="#371152" fill="none" stroke-width="3"></path></g><g transform="translate(757 303)"><path d="M8.6 -2.4C10.6 3.2 11.1 9.6 7.4 13C3.7 16.4 -4.3 16.7 -8.1 13.4C-11.9 10.1 -11.4 3.3 -9.4 -2.4C-7.3 -8.1 -3.7 -12.6 -0.2 -12.6C3.3 -12.5 6.7 -7.9 8.6 -2.4Z" stroke="#371152" fill="none" stroke-width="3"></path></g><g transform="translate(590 111)"><path d="M11.1 -4.4C12.5 0.8 10.5 6.3 7.2 8.2C4 10.2 -0.6 8.7 -3.2 6.3C-5.9 4 -6.5 0.8 -5.7 -3.6C-4.8 -8 -2.4 -13.6 1.2 -14C4.8 -14.4 9.7 -9.5 11.1 -4.4Z" stroke="#371152" fill="none" stroke-width="3"></path></g><g transform="translate(564 231)"><path d="M6.3 -1.8C7.2 0.6 6.2 3.8 3.9 5.5C1.6 7.3 -2 7.5 -4 5.9C-5.9 4.4 -6.3 1.1 -5.4 -1.3C-4.4 -3.8 -2.2 -5.5 0.3 -5.6C2.7 -5.7 5.5 -4.2 6.3 -1.8Z" stroke="#371152" fill="none" stroke-width="3"></path></g><g transform="translate(437 185)"><path d="M10.4 -2.9C11.6 0.5 9.6 5.4 6.1 7.7C2.7 10 -2.1 9.7 -4.8 7.5C-7.5 5.3 -8.2 1.2 -7.1 -2C-5.9 -5.2 -3 -7.6 0.8 -7.9C4.6 -8.1 9.1 -6.3 10.4 -2.9Z" stroke="#371152" fill="none" stroke-width="3"></path></g><g transform="translate(573 386)"><path d="M11.8 -5.1C12.6 -1.2 8.9 2.9 5.5 4.8C2 6.6 -1.1 6.2 -3.3 4.6C-5.5 2.9 -6.8 0.2 -6.1 -3.6C-5.4 -7.3 -2.7 -11.9 1.4 -12.3C5.5 -12.8 10.9 -9.1 11.8 -5.1Z" stroke="#371152" fill="none" stroke-width="3"></path></g><g transform="translate(191 482)"><path d="M8.7 -3.9C9.6 -0.2 7.4 3.4 4.4 5.4C1.4 7.5 -2.3 7.8 -5.5 5.9C-8.7 3.9 -11.4 -0.3 -10.4 -4.2C-9.4 -8.2 -4.7 -11.7 -0.4 -11.6C3.9 -11.5 7.9 -7.7 8.7 -3.9Z" stroke="#371152" fill="none" stroke-width="3"></path></g><g transform="translate(905 295)"><path d="M2.4 -0.7C2.7 0 2.1 1 1.2 1.7C0.3 2.3 -0.9 2.6 -1.7 2.1C-2.5 1.6 -2.8 0.3 -2.5 -0.5C-2.1 -1.4 -1.1 -1.7 0 -1.7C1.1 -1.7 2.2 -1.4 2.4 -0.7Z" stroke="#371152" fill="none" stroke-width="3"></path></g><g transform="translate(194 42)"><path d="M5.1 -1.8C6.3 2.2 6.9 6.2 4.5 8.4C2.2 10.6 -3 11 -6.4 8.5C-9.8 6.1 -11.4 1 -10 -3.2C-8.6 -7.4 -4.3 -10.7 -1.2 -10.3C1.9 -9.9 3.8 -5.9 5.1 -1.8Z" stroke="#371152" fill="none" stroke-width="3"></path></g><g transform="translate(857 155)"><path d="M15.6 -6C16.8 -1.4 11.9 4.2 7.3 6.7C2.7 9.3 -1.7 8.9 -4.4 6.7C-7 4.6 -8 0.9 -7 -3.5C-6 -7.8 -3 -12.7 2.1 -13.4C7.2 -14.1 14.4 -10.5 15.6 -6Z" stroke="#371152" fill="none" stroke-width="3"></path></g><g transform="translate(190 393)"><path d="M5 -1.4C5.7 0.7 5.1 3.4 2.9 5.2C0.8 7.1 -2.8 8 -4.7 6.6C-6.6 5.2 -6.7 1.5 -5.6 -1C-4.5 -3.6 -2.3 -5 -0.1 -4.9C2.1 -4.9 4.2 -3.5 5 -1.4Z" stroke="#371152" fill="none" stroke-width="3"></path></g><g transform="translate(593 297)"><path d="M2 -0.6C2.2 -0.1 1.6 0.6 0.9 1.1C0.3 1.5 -0.5 1.6 -1 1.2C-1.5 0.9 -1.8 0.1 -1.6 -0.4C-1.4 -0.9 -0.7 -1.1 0.1 -1.1C0.9 -1.1 1.8 -1 2 -0.6Z" stroke="#371152" fill="none" stroke-width="3"></path></g><g transform="translate(516 346)"><path d="M2 -0.8C2.2 0 1.7 0.9 1.1 1.3C0.5 1.7 -0.3 1.5 -0.9 1.1C-1.5 0.7 -2 -0.1 -1.8 -0.9C-1.7 -1.7 -0.8 -2.5 0 -2.5C0.9 -2.5 1.7 -1.7 2 -0.8Z" stroke="#371152" fill="none" stroke-width="3"></path></g><g transform="translate(507 67)"><path d="M4.9 -1.5C6 1.8 6.2 5.4 4.5 6.8C2.7 8.2 -1 7.4 -3.4 5.4C-5.9 3.5 -6.9 0.5 -6.1 -2.4C-5.3 -5.2 -2.7 -7.9 -0.4 -7.8C1.9 -7.6 3.8 -4.7 4.9 -1.5Z" stroke="#371152" fill="none" stroke-width="3"></path></g><g transform="translate(807 124)"><path d="M7.6 -2.2C8.9 1.6 8.4 6.3 5.9 8.1C3.3 10 -1.3 9 -3.9 6.8C-6.5 4.5 -7.1 1 -6.1 -2.3C-5.2 -5.7 -2.6 -8.9 0.3 -8.9C3.1 -9 6.2 -6 7.6 -2.2Z" stroke="#371152" fill="none" stroke-width="3"></path></g><g transform="translate(372 326)"><path d="M1.2 -0.2C1.4 0.4 1.5 1.3 1.1 1.6C0.7 1.9 -0.2 1.7 -0.7 1.3C-1.3 0.9 -1.4 0.2 -1.2 -0.3C-1 -0.8 -0.5 -1.1 0 -1.1C0.5 -1.1 0.9 -0.8 1.2 -0.2Z" stroke="#371152" fill="none" stroke-width="3"></path></g><g transform="translate(34 131)"><path d="M1.3 -0.4C1.5 0.1 1.2 0.7 0.7 1.2C0.2 1.6 -0.6 1.8 -1 1.5C-1.4 1.2 -1.4 0.4 -1.2 -0.2C-0.9 -0.8 -0.5 -1.1 0 -1.1C0.6 -1.1 1.1 -0.8 1.3 -0.4Z" stroke="#371152" fill="none" stroke-width="3"></path></g><g transform="translate(133 219)"><path d="M4.2 -1.6C4.8 0.5 4.2 2.7 2.7 3.9C1.1 5.1 -1.4 5.3 -3.4 4C-5.3 2.7 -6.7 0 -6.1 -2.1C-5.4 -4.2 -2.7 -5.7 -0.5 -5.6C1.8 -5.4 3.6 -3.6 4.2 -1.6Z" stroke="#371152" fill="none" stroke-width="3"></path></g><g transform="translate(542 163)"><path d="M11.5 -1.5C13.9 3.7 14.2 11.8 10.7 14.2C7.2 16.6 -0.1 13.3 -5.4 9.1C-10.7 4.8 -14.1 -0.4 -12.9 -4C-11.7 -7.5 -5.8 -9.3 -0.6 -9.1C4.5 -8.9 9.1 -6.7 11.5 -1.5Z" stroke="#371152" fill="none" stroke-width="3"></path></g><g transform="translate(62 299)"><path d="M8.2 -3.2C8.7 -1.1 5.9 1.6 2.9 3.8C-0.1 5.9 -3.4 7.6 -5.6 6.3C-7.8 5 -9 0.9 -7.9 -2.1C-6.7 -5 -3.4 -6.7 0.2 -6.8C3.8 -6.8 7.7 -5.3 8.2 -3.2Z" stroke="#371152" fill="none" stroke-width="3"></path></g><g transform="translate(131 306)"><path d="M10.7 -2C12.1 1 10.4 6.5 7.2 8.5C3.9 10.6 -0.9 9.2 -3.7 6.8C-6.4 4.4 -7.1 0.9 -6.2 -1.4C-5.2 -3.8 -2.6 -5 1 -5.4C4.6 -5.7 9.2 -5.1 10.7 -2Z" stroke="#371152" fill="none" stroke-width="3"></path></g><g transform="translate(872 54)"><path d="M4.3 -1.4C5.2 1.4 5.3 4.5 3.5 6.1C1.6 7.8 -2.3 8.1 -4.8 6.4C-7.3 4.6 -8.4 0.8 -7.4 -2.1C-6.3 -5.1 -3.2 -7 -0.7 -6.8C1.7 -6.6 3.4 -4.1 4.3 -1.4Z" stroke="#371152" fill="none" stroke-width="3"></path></g><g transform="translate(519 421)"><path d="M8 -2.6C9 0.5 7.5 4.4 5.2 5.8C3 7.1 -0.2 5.8 -2.7 3.9C-5.3 2 -7.3 -0.5 -6.7 -3C-6.2 -5.4 -3.1 -7.8 0.2 -7.8C3.5 -7.9 6.9 -5.6 8 -2.6Z" stroke="#371152" fill="none" stroke-width="3"></path></g><g transform="translate(332 409)"><path d="M1.4 -0.5C1.5 0.1 1.3 0.7 0.8 1.1C0.3 1.5 -0.4 1.5 -1 1.2C-1.6 0.8 -1.9 0 -1.7 -0.6C-1.5 -1.3 -0.8 -1.8 -0.1 -1.7C0.6 -1.7 1.2 -1.1 1.4 -0.5Z" stroke="#371152" fill="none" stroke-width="3"></path></g><g transform="translate(933 357)"><path d="M9.2 -3.6C10.4 0.8 8.8 5.4 6.1 7.1C3.3 8.8 -0.6 7.5 -3.3 5.4C-5.9 3.2 -7.3 0.2 -6.5 -3.5C-5.8 -7.2 -2.9 -11.6 0.5 -11.8C4 -11.9 7.9 -7.9 9.2 -3.6Z" stroke="#371152" fill="none" stroke-width="3"></path></g><g transform="translate(281 245)"><path d="M1.9 -0.4C2.4 0.9 2.6 2.4 1.8 3.2C1 4 -0.9 3.9 -2 3.1C-3.1 2.2 -3.4 0.5 -3 -0.7C-2.5 -1.9 -1.2 -2.7 -0.3 -2.6C0.7 -2.5 1.4 -1.6 1.9 -0.4Z" stroke="#371152" fill="none" stroke-width="3"></path></g><g transform="translate(881 489)"><path d="M4.6 -2.2C5 -0.2 3.8 1.6 2.2 2.6C0.7 3.7 -1.1 3.9 -2.8 2.9C-4.5 1.9 -6 -0.3 -5.5 -2.4C-5 -4.4 -2.5 -6.4 -0.2 -6.3C2.1 -6.3 4.2 -4.1 4.6 -2.2Z" stroke="#371152" fill="none" stroke-width="3"></path></g><g transform="translate(798 384)"><path d="M7.5 -2.2C8.8 1.7 8.4 6.4 5.4 8.9C2.3 11.5 -3.4 12 -6.8 9.4C-10.3 6.9 -11.7 1.3 -10.1 -2.7C-8.6 -6.8 -4.3 -9.5 -0.6 -9.3C3.1 -9 6.1 -6 7.5 -2.2Z" stroke="#371152" fill="none" stroke-width="3"></path></g><g transform="translate(76 479)"><path d="M14.6 -5.2C16.3 0.5 13.3 7.3 8.2 10.9C3.1 14.5 -4 15 -8.1 11.8C-12.2 8.7 -13.2 2 -11.3 -3.9C-9.5 -9.9 -4.7 -15.1 0.9 -15.4C6.5 -15.7 12.9 -11 14.6 -5.2Z" stroke="#371152" fill="none" stroke-width="3"></path></g><g transform="translate(822 325)"><path d="M3 -1C3.4 0.1 2.7 1.5 1.6 2.4C0.4 3.3 -1.3 3.7 -2.6 2.9C-3.8 2.1 -4.7 0.2 -4.2 -1.1C-3.7 -2.4 -1.8 -2.9 -0.3 -2.9C1.3 -2.8 2.7 -2 3 -1Z" stroke="#371152" fill="none" stroke-width="3"></path></g><g transform="translate(652 217)"><path d="M1.9 -0.8C2 -0.2 1.4 0.4 0.7 0.9C0 1.3 -0.7 1.6 -1.2 1.3C-1.7 1 -1.9 0.2 -1.7 -0.6C-1.5 -1.3 -0.7 -1.8 0.1 -1.9C0.9 -1.9 1.7 -1.4 1.9 -0.8Z" stroke="#371152" fill="none" stroke-width="3"></path></g><g transform="translate(434 85)"><path d="M6.7 -1.8C8.2 2.5 8.7 7.6 6 9.9C3.4 12.2 -2.5 11.8 -5.5 9.2C-8.5 6.6 -8.8 1.9 -7.4 -2.3C-6 -6.4 -3 -9.9 -0.2 -9.8C2.6 -9.7 5.1 -6.1 6.7 -1.8Z" stroke="#371152" fill="none" stroke-width="3"></path></g><g transform="translate(718 199)"><path d="M14.6 -3.8C16.4 0.7 13.5 7.7 8.2 11.7C2.8 15.7 -5 16.7 -10.2 13.1C-15.4 9.6 -17.9 1.5 -15.8 -3.6C-13.6 -8.6 -6.8 -10.6 -0.2 -10.5C6.4 -10.5 12.8 -8.4 14.6 -3.8Z" stroke="#371152" fill="none" stroke-width="3"></path></g><g transform="translate(664 371)"><path d="M2.3 -1.2C2.6 0.2 2.2 1.3 1.1 2.3C0.1 3.2 -1.7 3.9 -2.6 3.3C-3.6 2.7 -3.8 0.7 -3.2 -1.1C-2.6 -2.8 -1.3 -4.4 -0.2 -4.4C1 -4.3 2 -2.6 2.3 -1.2Z" stroke="#371152" fill="none" stroke-width="3"></path></g><g transform="translate(348 223)"><path d="M1.1 -0.4C1.3 0.3 1.3 1.1 0.9 1.3C0.6 1.6 -0.1 1.4 -0.7 1C-1.3 0.6 -1.7 0 -1.5 -0.7C-1.4 -1.3 -0.7 -2 -0.1 -1.9C0.4 -1.9 0.9 -1.2 1.1 -0.4Z" stroke="#371152" fill="none" stroke-width="3"></path></g><g transform="translate(735 351)"><path d="M12.4 -4.1C13.4 -0.8 9.9 4 5.8 6.6C1.7 9.3 -2.9 9.8 -5.7 7.8C-8.4 5.8 -9.3 1.3 -8 -2.3C-6.8 -6 -3.4 -8.6 1.1 -9C5.7 -9.4 11.3 -7.4 12.4 -4.1Z" stroke="#371152" fill="none" stroke-width="3"></path></g><g transform="translate(547 27)"><path d="M9.6 -2.4C11 1.2 9.7 6.3 6.9 8.1C4 9.8 -0.3 8.2 -5 5.2C-9.6 2.2 -14.4 -2 -13.6 -4.7C-12.8 -7.5 -6.4 -8.6 -1.2 -8.3C4.1 -7.9 8.2 -6 9.6 -2.4Z" stroke="#371152" fill="none" stroke-width="3"></path></g><g transform="translate(756 417)"><path d="M4.6 -2.2C5.4 1.1 5.2 4 3.3 5.6C1.4 7.3 -2.2 7.7 -3.9 6.2C-5.6 4.8 -5.4 1.6 -4.4 -1.9C-3.4 -5.4 -1.7 -9.1 0.1 -9.1C1.9 -9.1 3.7 -5.5 4.6 -2.2Z" stroke="#371152" fill="none" stroke-width="3"></path></g><g transform="translate(28 346)"><path d="M2.4 -0.6C2.8 0.3 2.5 1.7 1.6 2.4C0.7 3.1 -0.8 3.1 -1.5 2.5C-2.2 1.9 -2.1 0.7 -1.7 -0.4C-1.3 -1.4 -0.6 -2.1 0.2 -2.2C1 -2.3 2 -1.6 2.4 -0.6Z" stroke="#371152" fill="none" stroke-width="3"></path></g><g transform="translate(259 385)"><path d="M15.7 -4.7C17.8 1.6 15.4 9.8 10.7 12.8C5.9 15.9 -1.3 13.8 -6.2 9.9C-11.1 6 -13.7 0.4 -12.3 -4.9C-10.9 -10.1 -5.4 -14.9 0.7 -15.1C6.7 -15.3 13.5 -11 15.7 -4.7Z" stroke="#371152" fill="none" stroke-width="3"></path></g><g transform="translate(784 225)"><path d="M11.2 -3C12.4 -0.2 9.5 4.5 6.3 6.2C3.1 8 -0.5 6.8 -2.9 4.8C-5.3 2.9 -6.6 0.2 -5.9 -2C-5.2 -4.1 -2.6 -5.7 1.2 -6.1C5.1 -6.5 10.1 -5.7 11.2 -3Z" stroke="#371152" fill="none" stroke-width="3"></path></g><g transform="translate(223 438)"><path d="M2.7 -0.8C3.1 0.2 2.6 1.6 1.8 2.1C1 2.6 -0.2 2.3 -1.1 1.7C-2 1 -2.5 0 -2.3 -0.8C-2 -1.7 -1 -2.4 0.1 -2.4C1.2 -2.4 2.3 -1.8 2.7 -0.8Z" stroke="#371152" fill="none" stroke-width="3"></path></g><g transform="translate(98 369)"><path d="M4.2 -2.2C4.6 0 3.6 1.9 1.8 3.5C-0.1 5.1 -2.9 6.4 -4.8 5.4C-6.6 4.3 -7.6 0.7 -6.7 -2.2C-5.7 -5.1 -2.9 -7.4 -0.5 -7.2C1.9 -7 3.7 -4.4 4.2 -2.2Z" stroke="#371152" fill="none" stroke-width="3"></path></g><g transform="translate(736 102)"><path d="M3.3 -1.7C3.8 0.2 3.1 1.9 1.9 2.8C0.6 3.8 -1.3 4.1 -3.3 3C-5.3 1.9 -7.3 -0.6 -6.8 -2.7C-6.3 -4.8 -3.1 -6.5 -0.8 -6.2C1.5 -5.9 2.9 -3.7 3.3 -1.7Z" stroke="#371152" fill="none" stroke-width="3"></path></g><g transform="translate(933 187)"><path d="M4.9 -1.2C5.5 0.4 4.7 2.9 3 4C1.4 5.2 -1.1 5 -2.7 3.8C-4.3 2.7 -5 0.4 -4.4 -1.1C-3.8 -2.7 -1.9 -3.4 0.1 -3.5C2.1 -3.5 4.2 -2.8 4.9 -1.2Z" stroke="#371152" fill="none" stroke-width="3"></path></g><g transform="translate(714 273)"><path d="M4.4 -1.9C5 0.2 4.1 2.3 2.6 3.3C1.1 4.3 -0.9 4.2 -2.8 3.1C-4.7 1.9 -6.3 -0.3 -5.8 -2.4C-5.3 -4.6 -2.7 -6.5 -0.4 -6.4C1.9 -6.3 3.9 -4.1 4.4 -1.9Z" stroke="#371152" fill="none" stroke-width="3"></path></g><g transform="translate(489 155)"><path d="M1 -0.3C1.2 0.3 1.2 0.9 0.7 1.4C0.2 1.8 -0.7 2 -1.2 1.7C-1.6 1.4 -1.6 0.4 -1.3 -0.3C-1.1 -1 -0.5 -1.5 -0.1 -1.5C0.4 -1.5 0.8 -0.9 1 -0.3Z" stroke="#371152" fill="none" stroke-width="3"></path></g><g transform="translate(454 259)"><path d="M4.8 -1.7C5.5 0.6 4.8 3.1 2.8 4.8C0.9 6.4 -2.4 7 -4 5.8C-5.6 4.5 -5.6 1.4 -4.6 -1.3C-3.7 -3.9 -1.8 -6 0.1 -6C2 -6 4.1 -4 4.8 -1.7Z" stroke="#371152" fill="none" stroke-width="3"></path></g><g transform="translate(667 33)"><path d="M3 -0.9C3.4 0.5 3.1 2.1 2 3C0.9 3.9 -1 4 -1.9 3.2C-2.7 2.5 -2.4 0.9 -1.9 -0.5C-1.4 -1.9 -0.7 -3.1 0.3 -3.2C1.2 -3.3 2.5 -2.2 3 -0.9Z" stroke="#371152" fill="none" stroke-width="3"></path></g><g transform="translate(307 343)"><path d="M5.4 -2C6.2 0.9 5.7 3.9 3 6.4C0.4 8.9 -4.4 10.7 -6.4 9.1C-8.4 7.6 -7.8 2.6 -6.2 -1.2C-4.7 -4.9 -2.4 -7.6 -0.1 -7.6C2.3 -7.6 4.5 -4.9 5.4 -2Z" stroke="#371152" fill="none" stroke-width="3"></path></g><g transform="translate(110 117)"><path d="M2.4 -0.6C2.7 0.1 2.2 1.2 1.5 1.6C0.7 2.1 -0.2 1.8 -0.8 1.3C-1.4 0.9 -1.6 0.1 -1.4 -0.4C-1.2 -1 -0.6 -1.4 0.2 -1.5C1.1 -1.6 2.1 -1.3 2.4 -0.6Z" stroke="#371152" fill="none" stroke-width="3"></path></g><g transform="translate(385 422)"><path d="M11.6 -3.4C13.3 1.5 11.8 7.8 7.9 10.6C3.9 13.4 -2.4 12.7 -6.9 9.5C-11.3 6.2 -13.9 0.4 -12.5 -4.1C-11 -8.6 -5.5 -11.8 -0.3 -11.7C4.9 -11.6 9.9 -8.2 11.6 -3.4Z" stroke="#371152" fill="none" stroke-width="3"></path></g><g transform="translate(428 381)"><path d="M11.1 -2.9C12.4 0.4 10.1 5.6 6.8 7.7C3.4 9.7 -1 8.6 -3.9 6.2C-6.7 3.9 -8.1 0.4 -7.2 -2.3C-6.3 -5 -3.1 -7 0.9 -7.3C4.9 -7.6 9.8 -6.2 11.1 -2.9Z" stroke="#371152" fill="none" stroke-width="3"></path></g><g transform="translate(216 245)"><path d="M4.8 -1.4C5.7 1 5.4 4 3.5 5.5C1.7 7 -1.7 7 -3.9 5.4C-6.1 3.8 -7 0.6 -6.2 -1.8C-5.3 -4.2 -2.7 -5.8 -0.3 -5.7C2 -5.6 4 -3.8 4.8 -1.4Z" stroke="#371152" fill="none" stroke-width="3"></path></g><g transform="translate(40 211)"><path d="M1.3 -0.5C1.5 0.2 1.3 0.9 0.9 1.3C0.4 1.7 -0.4 1.7 -0.8 1.3C-1.2 1 -1.3 0.3 -1.1 -0.4C-0.8 -1.1 -0.4 -1.7 0.1 -1.7C0.5 -1.8 1.1 -1.1 1.3 -0.5Z" stroke="#371152" fill="none" stroke-width="3"></path></g><g transform="translate(34 442)"><path d="M13.7 -3.3C16 2.4 14.7 10.5 10.1 13.8C5.5 17.1 -2.4 15.6 -7.2 11.7C-12 7.8 -13.6 1.4 -11.9 -3.6C-10.2 -8.6 -5.1 -12.2 0.3 -12.3C5.7 -12.4 11.5 -9 13.7 -3.3Z" stroke="#371152" fill="none" stroke-width="3"></path></g><g transform="translate(142 50)"><path d="M10.3 -2.6C12 1.8 11 7.7 6.8 11.2C2.6 14.7 -4.7 15.6 -8.1 12.8C-11.5 9.9 -10.9 3.3 -8.9 -1.5C-6.9 -6.4 -3.4 -9.4 0.4 -9.6C4.3 -9.7 8.6 -7 10.3 -2.6Z" stroke="#371152" fill="none" stroke-width="3"></path></g><g transform="translate(439 512)"><path d="M1.6 -0.6C1.9 0.2 1.6 1.1 0.9 1.7C0.2 2.4 -1.1 2.8 -1.7 2.3C-2.4 1.9 -2.5 0.5 -2.1 -0.5C-1.7 -1.5 -0.8 -2.3 -0.1 -2.3C0.7 -2.2 1.4 -1.5 1.6 -0.6Z" stroke="#371152" fill="none" stroke-width="3"></path></g><g transform="translate(687 131)"><path d="M5 -1.5C5.9 1.1 5.6 4.2 3.5 6C1.4 7.8 -2.5 8.3 -4.6 6.7C-6.7 5.1 -7.1 1.3 -6 -1.5C-4.9 -4.3 -2.5 -6.2 -0.2 -6.2C2.1 -6.1 4.2 -4.1 5 -1.5Z" stroke="#371152" fill="none" stroke-width="3"></path></g><g transform="translate(930 77)"><path d="M13.7 -6C14.7 -1.3 10.4 3.6 5.8 6.5C1.3 9.5 -3.6 10.6 -6.8 8.5C-9.9 6.4 -11.3 1.1 -9.9 -4.1C-8.5 -9.3 -4.3 -14.4 1 -14.8C6.3 -15.1 12.7 -10.6 13.7 -6Z" stroke="#371152" fill="none" stroke-width="3"></path></g><g transform="translate(571 454)"><path d="M3.4 -1C4 0.5 3.6 2.4 2.3 3.4C1.1 4.3 -1 4.3 -2.3 3.3C-3.6 2.3 -4 0.4 -3.5 -1C-3 -2.5 -1.5 -3.5 0 -3.5C1.5 -3.5 2.9 -2.4 3.4 -1Z" stroke="#371152" fill="none" stroke-width="3"></path></g><g transform="translate(260 51)"><path d="M10.2 -2.4C11.6 1 10 6.3 6.1 9.4C2.2 12.4 -4 13.3 -7 10.8C-10 8.4 -9.8 2.6 -8.1 -1.3C-6.4 -5.2 -3.2 -7.2 0.6 -7.4C4.4 -7.6 8.8 -5.9 10.2 -2.4Z" stroke="#371152" fill="none" stroke-width="3"></path></g><g transform="translate(166 103)"><path d="M1.7 -0.4C2 0.4 1.9 1.5 1.4 1.9C0.8 2.3 -0.3 2.1 -1.3 1.5C-2.2 0.9 -3 -0.2 -2.8 -0.8C-2.6 -1.5 -1.3 -1.8 -0.3 -1.7C0.7 -1.6 1.4 -1.1 1.7 -0.4Z" stroke="#371152" fill="none" stroke-width="3"></path></g><g transform="translate(237 104)"><path d="M3.3 -1.5C3.8 0.4 3.3 2.2 2.2 2.9C1.1 3.7 -0.6 3.5 -1.8 2.6C-3 1.7 -3.7 0.1 -3.3 -1.7C-3 -3.5 -1.5 -5.5 0 -5.5C1.4 -5.5 2.9 -3.5 3.3 -1.5Z" stroke="#371152" fill="none" stroke-width="3"></path></g><g transform="translate(341 33)"><path d="M8.6 -3.1C10.2 2.1 9.9 7.7 7.1 9.7C4.3 11.7 -1 10.1 -5.2 7.1C-9.5 4 -12.8 -0.6 -11.8 -5.1C-10.7 -9.5 -5.4 -13.8 -0.9 -13.5C3.5 -13.2 7 -8.3 8.6 -3.1Z" stroke="#371152" fill="none" stroke-width="3"></path></g><g transform="translate(599 38)"><path d="M5.9 -1.8C7.1 1.7 7.1 5.8 5.2 7.3C3.2 8.7 -0.8 7.6 -4.2 5.2C-7.6 2.9 -10.5 -0.7 -9.7 -3.7C-8.9 -6.7 -4.5 -9 -1 -8.7C2.4 -8.4 4.8 -5.3 5.9 -1.8Z" stroke="#371152" fill="none" stroke-width="3"></path></g><g transform="translate(845 272)"><path d="M8.2 -2.2C9.3 0.6 7.8 4.7 5.3 6.3C2.8 7.8 -0.7 6.9 -2.6 5.2C-4.5 3.4 -4.7 0.9 -4 -1.4C-3.3 -3.7 -1.6 -5.9 1 -6.2C3.6 -6.5 7.2 -5 8.2 -2.2Z" stroke="#371152" fill="none" stroke-width="3"></path></g><g transform="translate(697 432)"><path d="M3.6 -1.1C4 0.3 3.4 2.1 2.3 2.9C1.1 3.7 -0.7 3.5 -2 2.6C-3.4 1.6 -4.4 -0.1 -4 -1.3C-3.6 -2.5 -1.8 -3.4 -0.1 -3.3C1.5 -3.3 3.1 -2.4 3.6 -1.1Z" stroke="#371152" fill="none" stroke-width="3"></path></g><g transform="translate(124 441)"><path d="M8 -0.8C9.9 3.2 10.6 9.4 7.8 11.6C5.1 13.8 -1.2 12 -6.5 8.3C-11.8 4.6 -16.1 -1 -14.9 -4.1C-13.7 -7.2 -6.8 -7.8 -1.9 -7.2C3.1 -6.6 6.1 -4.8 8 -0.8Z" stroke="#371152" fill="none" stroke-width="3"></path></g><g transform="translate(634 142)"><path d="M3.6 -1.6C3.9 -0.3 2.8 1 1.7 1.7C0.6 2.3 -0.5 2.2 -1.4 1.6C-2.3 1 -3.1 -0.1 -2.8 -1.4C-2.6 -2.7 -1.3 -4.1 0.2 -4.2C1.7 -4.2 3.3 -2.9 3.6 -1.6Z" stroke="#371152" fill="none" stroke-width="3"></path></g><g transform="translate(407 35)"><path d="M9.2 -4.3C10.1 -0.1 7.8 3.8 4.2 6.6C0.6 9.5 -4.5 11.3 -6.7 9.5C-9 7.8 -8.6 2.6 -7 -2.5C-5.4 -7.6 -2.7 -12.5 0.7 -12.7C4.1 -12.9 8.2 -8.5 9.2 -4.3Z" stroke="#371152" fill="none" stroke-width="3"></path></g><g transform="translate(307 173)"><path d="M11.7 -4C13.5 1.6 12 8.1 7.9 11.1C3.8 14.2 -2.9 13.7 -8.1 10.2C-13.3 6.7 -16.9 0 -15.3 -5.5C-13.7 -10.9 -6.8 -15.2 -0.9 -14.9C5 -14.6 9.9 -9.7 11.7 -4Z" stroke="#371152" fill="none" stroke-width="3"></path></g><g transform="translate(361 512)"><path d="M8.5 -2.5C9.6 0.7 8.2 5 4.9 7.5C1.6 10.1 -3.5 11 -6.2 8.9C-9 6.8 -9.4 1.8 -8 -1.8C-6.5 -5.4 -3.3 -7.6 0.2 -7.7C3.7 -7.8 7.4 -5.7 8.5 -2.5Z" stroke="#371152" fill="none" stroke-width="3"></path></g><g transform="translate(342 463)"><path d="M2.5 -0.8C2.8 0 2.1 1 1.3 1.6C0.5 2.1 -0.5 2.1 -1.5 1.5C-2.6 0.9 -3.6 -0.3 -3.3 -1.1C-3.1 -1.9 -1.5 -2.3 -0.2 -2.2C1.1 -2.2 2.3 -1.6 2.5 -0.8Z" stroke="#371152" fill="none" stroke-width="3"></path></g><g transform="translate(728 36)"><path d="M3.1 -1.1C3.8 1.2 4.1 3.6 2.7 4.9C1.3 6.1 -1.7 6.3 -2.9 5.1C-4.2 4 -3.7 1.5 -2.9 -0.9C-2.1 -3.3 -1.1 -5.6 0.1 -5.6C1.2 -5.6 2.4 -3.4 3.1 -1.1Z" stroke="#371152" fill="none" stroke-width="3"></path></g><g transform="translate(801 70)"><path d="M5.1 -1.4C5.7 0.4 4.8 2.9 3.3 3.8C1.8 4.7 -0.2 3.9 -1.4 2.9C-2.6 1.8 -2.8 0.4 -2.4 -1C-2 -2.3 -1 -3.7 0.6 -3.9C2.2 -4.1 4.4 -3.1 5.1 -1.4Z" stroke="#371152" fill="none" stroke-width="3"></path></g><g transform="translate(874 348)"><path d="M5.2 -1.5C5.8 -0.1 4.5 2.1 2.7 3.3C1 4.5 -1.2 4.6 -3.2 3.4C-5.1 2.2 -6.8 -0.3 -6.2 -1.7C-5.6 -3.2 -2.8 -3.6 -0.2 -3.5C2.4 -3.4 4.7 -2.9 5.2 -1.5Z" stroke="#371152" fill="none" stroke-width="3"></path></g><g transform="translate(646 443)"><path d="M10.9 -4.1C11.9 -0.5 8.9 3.9 5.4 6.1C2 8.2 -2 8.3 -5.7 6C-9.3 3.8 -12.6 -0.7 -11.6 -4.3C-10.6 -7.9 -5.3 -10.7 -0.2 -10.6C4.9 -10.5 9.9 -7.7 10.9 -4.1Z" stroke="#371152" fill="none" stroke-width="3"></path></g><g transform="translate(539 280)"><path d="M2 -0.9C2.3 0.2 1.9 1.2 1.3 1.7C0.6 2.1 -0.4 2 -1 1.5C-1.6 1.1 -1.7 0.2 -1.5 -0.8C-1.2 -1.8 -0.6 -2.9 0.1 -3C0.9 -3 1.7 -1.9 2 -0.9Z" stroke="#371152" fill="none" stroke-width="3"></path></g><g transform="translate(145 162)"><path d="M10 -3.2C11.4 1.1 10 6.4 6.6 8.7C3.3 11 -1.9 10.4 -5.9 7.6C-9.8 4.8 -12.6 -0.1 -11.5 -4.1C-10.3 -8.1 -5.1 -11.1 -0.4 -11C4.3 -10.8 8.6 -7.5 10 -3.2Z" stroke="#371152" fill="none" stroke-width="3"></path></g><g transform="translate(468 451)"><path d="M8.2 -1.6C9.3 0.7 7.9 4.8 4.9 7.1C1.9 9.3 -2.7 9.7 -4.9 7.8C-7.1 6 -7 1.9 -5.8 -0.7C-4.6 -3.2 -2.3 -4.1 0.6 -4.3C3.5 -4.5 7.1 -4 8.2 -1.6Z" stroke="#371152" fill="none" stroke-width="3"></path></g><g transform="translate(648 292)"><path d="M2 -0.9C2.2 -0.1 1.6 0.6 1 1C0.4 1.3 -0.2 1.2 -0.6 0.9C-1 0.6 -1.2 0.1 -1.1 -0.6C-0.9 -1.3 -0.5 -2.1 0.2 -2.2C0.9 -2.3 1.9 -1.6 2 -0.9Z" stroke="#371152" fill="none" stroke-width="3"></path></g><g transform="translate(425 312)"><path d="M6 -2C6.6 -0.1 5.1 2.5 3.3 3.5C1.5 4.6 -0.6 4.2 -2.3 3C-4 1.8 -5.2 -0.1 -4.8 -1.8C-4.3 -3.5 -2.1 -4.9 0.3 -5C2.7 -5.1 5.4 -3.9 6 -2Z" stroke="#371152" fill="none" stroke-width="3"></path></g><g transform="translate(907 241)"><path d="M8.7 -3.4C9.7 0.2 7.8 4.2 4.2 7.1C0.6 10 -4.7 11.9 -7.7 9.9C-10.7 7.9 -11.4 2 -9.7 -2.6C-8.1 -7.2 -4 -10.5 -0.1 -10.5C3.8 -10.4 7.7 -7.1 8.7 -3.4Z" stroke="#371152" fill="none" stroke-width="3"></path></g><g transform="translate(810 178)"><path d="M2.8 -0.4C3.5 1.3 3.9 3.6 3.1 4.3C2.2 5 0 3.9 -1.5 2.7C-3.1 1.4 -4 -0.1 -3.6 -1.3C-3.3 -2.6 -1.6 -3.5 -0.3 -3.4C1 -3.3 2.1 -2.2 2.8 -0.4Z" stroke="#371152" fill="none" stroke-width="3"></path></g><g transform="translate(32 508)"><path d="M2.2 -0.3C2.7 0.8 2.8 2.5 1.9 3.4C0.9 4.3 -1.3 4.5 -2.5 3.5C-3.8 2.6 -4.2 0.6 -3.6 -0.7C-3 -1.9 -1.5 -2.3 -0.3 -2.2C0.8 -2.1 1.7 -1.4 2.2 -0.3Z" stroke="#371152" fill="none" stroke-width="3"></path></g><g transform="translate(509 223)"><path d="M9.2 -4.1C9.9 -0.6 7.3 2.8 4 5.2C0.7 7.5 -3.3 8.7 -5.2 7.3C-7.1 5.8 -7 1.8 -5.8 -2.3C-4.7 -6.3 -2.3 -10.3 0.9 -10.6C4.2 -10.9 8.4 -7.5 9.2 -4.1Z" stroke="#371152" fill="none" stroke-width="3"></path></g><g transform="translate(857 213)"><path d="M3.7 -1.5C4.1 0.2 3.4 1.9 2.1 2.9C0.8 3.8 -1.1 4 -2.2 3.2C-3.2 2.4 -3.5 0.6 -3 -1.1C-2.5 -2.8 -1.2 -4.5 0.2 -4.5C1.6 -4.6 3.2 -3.1 3.7 -1.5Z" stroke="#371152" fill="none" stroke-width="3"></path></g><g transform="translate(844 440)"><path d="M9.1 -3.5C10.1 0.1 8.1 4.2 5.3 6C2.4 7.7 -1.2 7.1 -4.4 5.1C-7.6 3 -10.4 -0.7 -9.6 -4C-8.8 -7.4 -4.4 -10.5 -0.2 -10.4C4.1 -10.4 8.1 -7.2 9.1 -3.5Z" stroke="#371152" fill="none" stroke-width="3"></path></g><g transform="translate(142 507)"><path d="M2.7 -1.1C2.9 -0.3 2 0.7 1.1 1.3C0.2 1.9 -0.8 2.1 -1.4 1.7C-2.1 1.3 -2.4 0.2 -2.1 -0.8C-1.9 -1.8 -0.9 -2.7 0.2 -2.7C1.3 -2.8 2.5 -2 2.7 -1.1Z" stroke="#371152" fill="none" stroke-width="3"></path></g><g transform="translate(87 247)"><path d="M3.7 -1.9C4.1 0.1 3.3 1.7 1.5 3.3C-0.3 4.9 -3.1 6.5 -4.5 5.6C-6 4.6 -6.2 1.3 -5.3 -1.5C-4.3 -4.2 -2.2 -6.4 -0.3 -6.3C1.6 -6.2 3.3 -3.9 3.7 -1.9Z" stroke="#371152" fill="none" stroke-width="3"></path></g><g transform="translate(181 284)"><path d="M17.4 -5.1C19.6 1.1 16.3 9.6 11 12.9C5.6 16.3 -1.9 14.6 -7.8 10.4C-13.8 6.1 -18.2 -0.6 -16.6 -5.9C-15.1 -11.2 -7.5 -15.1 0 -15.1C7.6 -15.1 15.2 -11.3 17.4 -5.1Z" stroke="#371152" fill="none" stroke-width="3"></path></g><g transform="translate(281 297)"><path d="M7.2 -1.6C8.3 1.1 7.5 5.1 4.7 7.4C1.9 9.6 -2.9 10.1 -6.5 7.7C-10.1 5.4 -12.5 0.3 -11.2 -2.7C-10 -5.6 -5 -6.3 -1 -5.9C3.1 -5.6 6.1 -4.3 7.2 -1.6Z" stroke="#371152" fill="none" stroke-width="3"></path></g><g transform="translate(909 126)"><path d="M12 -3.7C13.8 1.6 12.3 8.2 8.8 10.3C5.4 12.3 0.1 9.7 -3.9 6.6C-7.9 3.4 -10.6 -0.5 -9.8 -4.6C-8.9 -8.7 -4.4 -13.1 0.3 -13.2C5.1 -13.3 10.2 -9.1 12 -3.7Z" stroke="#371152" fill="none" stroke-width="3"></path></g><g transform="translate(330 274)"><path d="M4.2 -1C4.7 0.3 3.9 2.3 2.7 3C1.5 3.7 -0.1 3 -1.2 2.1C-2.4 1.2 -3 0 -2.7 -0.9C-2.4 -1.9 -1.2 -2.6 0.3 -2.7C1.8 -2.8 3.6 -2.3 4.2 -1Z" stroke="#371152" fill="none" stroke-width="3"></path></g><g transform="translate(825 507)"><path d="M8.4 -3.3C9.9 1.6 9.2 6.7 6.6 8.5C3.9 10.2 -0.7 8.7 -4.4 6C-8.1 3.3 -11 -0.6 -10.1 -4.8C-9.2 -8.9 -4.6 -13.3 -0.5 -13.2C3.5 -13 7 -8.2 8.4 -3.3Z" stroke="#371152" fill="none" stroke-width="3"></path></g><g transform="translate(603 190)"><path d="M13.4 -3.9C15.2 1.2 13 8 8.7 10.9C4.3 13.8 -2.1 12.8 -5.6 9.7C-9.1 6.7 -9.7 1.7 -8.3 -2.9C-6.9 -7.4 -3.5 -11.5 1.2 -11.9C5.8 -12.2 11.6 -8.9 13.4 -3.9Z" stroke="#371152" fill="none" stroke-width="3"></path></g><g transform="translate(743 498)"><path d="M3.2 -1.2C3.4 -0.3 2.5 0.9 1.5 1.4C0.5 2 -0.4 1.9 -1.4 1.3C-2.4 0.8 -3.4 -0.4 -3.2 -1.3C-3 -2.3 -1.5 -3.1 0 -3C1.5 -3 2.9 -2.2 3.2 -1.2Z" stroke="#371152" fill="none" stroke-width="3"></path></g><g transform="translate(90 187)"><path d="M11.3 -3.5C12.5 -0.1 9.8 4.8 6 7.4C2.2 10 -2.7 10.2 -5.4 8.1C-8.1 6 -8.6 1.5 -7.3 -2C-6 -5.5 -3 -8.1 1 -8.5C5.1 -8.8 10.1 -6.9 11.3 -3.5Z" stroke="#371152" fill="none" stroke-width="3"></path></g><g transform="translate(175 337)"><path d="M14.3 -4.8C16.1 0.9 13.4 7.9 8.7 11.1C4 14.2 -2.7 13.7 -7.3 10.3C-11.8 6.9 -14.1 0.8 -12.5 -4.6C-11 -10 -5.5 -14.7 0.4 -14.9C6.2 -15 12.5 -10.5 14.3 -4.8Z" stroke="#371152" fill="none" stroke-width="3"></path></g><g transform="translate(473 26)"><path d="M11.2 -2.9C13.1 2.3 12.3 9 8.2 12.2C4.1 15.4 -3.2 14.9 -7.5 11.5C-11.9 8.1 -13.2 1.7 -11.5 -3.3C-9.7 -8.2 -4.8 -11.8 -0.1 -11.7C4.6 -11.7 9.3 -8.1 11.2 -2.9Z" stroke="#371152" fill="none" stroke-width="3"></path></g><g transform="translate(760 149)"><path d="M2.5 -0.8C3.2 1.2 3.6 3.4 2.7 4.1C1.9 4.8 -0.3 4.1 -1.5 3C-2.7 1.9 -3 0.4 -2.6 -1.2C-2.2 -2.9 -1.1 -4.8 -0.1 -4.7C0.9 -4.7 1.8 -2.8 2.5 -0.8Z" stroke="#371152" fill="none" stroke-width="3"></path></g><g transform="translate(87 45)"><path d="M7.6 -3.6C8.2 -0.6 6 2.3 3.5 3.7C1.1 5.2 -1.5 5.4 -3.8 4C-6.2 2.6 -8.4 -0.4 -7.7 -3.5C-7.1 -6.6 -3.5 -9.8 0 -9.8C3.5 -9.8 7 -6.6 7.6 -3.6Z" stroke="#371152" fill="none" stroke-width="3"></path></g><g transform="translate(569 511)"><path d="M10.3 -2.4C12.1 2.2 11.5 8.6 8.2 10.9C4.9 13.2 -1 11.4 -5.1 8.2C-9.2 5 -11.4 0.3 -10.2 -3.5C-9.1 -7.2 -4.5 -10.1 -0.2 -10C4.2 -10 8.5 -7 10.3 -2.4Z" stroke="#371152" fill="none" stroke-width="3"></path></g></g></svg>