<svg id="visual" viewBox="0 0 800 200" width="800" height="200" xmlns="http://www.w3.org/2000/svg" xmlns:xlink="http://www.w3.org/1999/xlink" version="1.1"><g stroke-width="1" stroke-linejoin="bevel"><path d="M418.8 87L438.8 51L384.2 62Z" fill="#6bbaff" stroke="#6bbaff"></path><path d="M438.8 51L415.8 0L384.2 62Z" fill="#6bbaff" stroke="#6bbaff"></path><path d="M384.2 62L375.2 109L418.8 87Z" fill="#61caf8" stroke="#61caf8"></path><path d="M490.3 93L476.3 63L418.8 87Z" fill="#8da6fc" stroke="#8da6fc"></path><path d="M418.8 87L476.3 63L438.8 51Z" fill="#84dde6" stroke="#84dde6"></path><path d="M438.8 51L494.3 0L415.8 0Z" fill="#b68cea" stroke="#b68cea"></path><path d="M415.8 0L361.2 0L384.2 62Z" fill="#b68cea" stroke="#b68cea"></path><path d="M384.2 62L317.7 59L375.2 109Z" fill="#c87edb" stroke="#c87edb"></path><path d="M309.7 84L374.2 133L375.2 109Z" fill="#7ab0ff" stroke="#7ab0ff"></path><path d="M375.2 109L374.2 133L418.8 87Z" fill="#a29af5" stroke="#a29af5"></path><path d="M429.8 166L490.3 93L418.8 87Z" fill="#6bbaff" stroke="#6bbaff"></path><path d="M361.2 0L317.7 59L384.2 62Z" fill="#74d8ec" stroke="#74d8ec"></path><path d="M545.8 36L494.3 0L476.3 63Z" fill="#68d1f2" stroke="#68d1f2"></path><path d="M476.3 63L494.3 0L438.8 51Z" fill="#c87edb" stroke="#c87edb"></path><path d="M317.7 59L309.7 84L375.2 109Z" fill="#a29af5" stroke="#a29af5"></path><path d="M361.2 0L323.7 0L317.7 59Z" fill="#84dde6" stroke="#84dde6"></path><path d="M229.2 56L241.2 90L309.7 84Z" fill="#68d1f2" stroke="#68d1f2"></path><path d="M374.2 133L429.8 166L418.8 87Z" fill="#62c3fd" stroke="#62c3fd"></path><path d="M429.8 166L494.3 152L490.3 93Z" fill="#c87edb" stroke="#c87edb"></path><path d="M490.3 93L545.8 36L476.3 63Z" fill="#62c3fd" stroke="#62c3fd"></path><path d="M494.3 152L542.8 95L490.3 93Z" fill="#68d1f2" stroke="#68d1f2"></path><path d="M542.8 95L545.8 36L490.3 93Z" fill="#62c3fd" stroke="#62c3fd"></path><path d="M309.7 84L317.7 159L374.2 133Z" fill="#84dde6" stroke="#84dde6"></path><path d="M380.2 200L421.8 200L429.8 166Z" fill="#a29af5" stroke="#a29af5"></path><path d="M380.2 200L429.8 166L374.2 133Z" fill="#74d8ec" stroke="#74d8ec"></path><path d="M429.8 166L507.3 200L494.3 152Z" fill="#a29af5" stroke="#a29af5"></path><path d="M317.7 159L380.2 200L374.2 133Z" fill="#74d8ec" stroke="#74d8ec"></path><path d="M545.8 36L547.8 0L494.3 0Z" fill="#84dde6" stroke="#84dde6"></path><path d="M622.4 0L547.8 0L545.8 36Z" fill="#68d1f2" stroke="#68d1f2"></path><path d="M421.8 200L507.3 200L429.8 166Z" fill="#7ab0ff" stroke="#7ab0ff"></path><path d="M494.3 152L562.8 142L542.8 95Z" fill="#6bbaff" stroke="#6bbaff"></path><path d="M547.8 200L562.8 142L494.3 152Z" fill="#b68cea" stroke="#b68cea"></path><path d="M542.8 95L608.4 66L545.8 36Z" fill="#c87edb" stroke="#c87edb"></path><path d="M229.2 56L309.7 84L317.7 59Z" fill="#61caf8" stroke="#61caf8"></path><path d="M309.7 84L244.2 139L317.7 159Z" fill="#a29af5" stroke="#a29af5"></path><path d="M244.2 139L295.7 200L317.7 159Z" fill="#c87edb" stroke="#c87edb"></path><path d="M317.7 159L295.7 200L380.2 200Z" fill="#c87edb" stroke="#c87edb"></path><path d="M232.2 0L229.2 56L317.7 59Z" fill="#74d8ec" stroke="#74d8ec"></path><path d="M190.6 142L244.2 139L241.2 90Z" fill="#c87edb" stroke="#c87edb"></path><path d="M241.2 90L244.2 139L309.7 84Z" fill="#7ab0ff" stroke="#7ab0ff"></path><path d="M323.7 0L232.2 0L317.7 59Z" fill="#74d8ec" stroke="#74d8ec"></path><path d="M507.3 200L547.8 200L494.3 152Z" fill="#c87edb" stroke="#c87edb"></path><path d="M613.4 141L605.4 89L562.8 142Z" fill="#8da6fc" stroke="#8da6fc"></path><path d="M562.8 142L605.4 89L542.8 95Z" fill="#62c3fd" stroke="#62c3fd"></path><path d="M605.4 89L608.4 66L542.8 95Z" fill="#68d1f2" stroke="#68d1f2"></path><path d="M244.2 139L249.2 200L295.7 200Z" fill="#74d8ec" stroke="#74d8ec"></path><path d="M190.6 142L249.2 200L244.2 139Z" fill="#7ab0ff" stroke="#7ab0ff"></path><path d="M617.4 200L613.4 141L562.8 142Z" fill="#a29af5" stroke="#a29af5"></path><path d="M670.9 89L670.9 66L608.4 66Z" fill="#84dde6" stroke="#84dde6"></path><path d="M670.9 66L622.4 0L608.4 66Z" fill="#61caf8" stroke="#61caf8"></path><path d="M608.4 66L622.4 0L545.8 36Z" fill="#a29af5" stroke="#a29af5"></path><path d="M232.2 0L200.6 0L229.2 56Z" fill="#8da6fc" stroke="#8da6fc"></path><path d="M174.6 114L190.6 142L241.2 90Z" fill="#a29af5" stroke="#a29af5"></path><path d="M174.6 114L241.2 90L229.2 56Z" fill="#74d8ec" stroke="#74d8ec"></path><path d="M200.6 0L170.6 35L229.2 56Z" fill="#6bbaff" stroke="#6bbaff"></path><path d="M170.6 35L174.6 114L229.2 56Z" fill="#a29af5" stroke="#a29af5"></path><path d="M547.8 200L617.4 200L562.8 142Z" fill="#7ab0ff" stroke="#7ab0ff"></path><path d="M670.9 89L608.4 66L605.4 89Z" fill="#84dde6" stroke="#84dde6"></path><path d="M670.9 89L605.4 89L613.4 141Z" fill="#a29af5" stroke="#a29af5"></path><path d="M678.9 145L670.9 89L613.4 141Z" fill="#74d8ec" stroke="#74d8ec"></path><path d="M136.1 165L183.6 200L190.6 142Z" fill="#b68cea" stroke="#b68cea"></path><path d="M190.6 142L183.6 200L249.2 200Z" fill="#a29af5" stroke="#a29af5"></path><path d="M753.5 66L681.9 0L670.9 66Z" fill="#b68cea" stroke="#b68cea"></path><path d="M670.9 66L681.9 0L622.4 0Z" fill="#a29af5" stroke="#a29af5"></path><path d="M617.4 200L678.9 145L613.4 141Z" fill="#74d8ec" stroke="#74d8ec"></path><path d="M670.9 89L743.5 98L670.9 66Z" fill="#84dde6" stroke="#84dde6"></path><path d="M112.1 88L136.1 165L174.6 114Z" fill="#c87edb" stroke="#c87edb"></path><path d="M174.6 114L136.1 165L190.6 142Z" fill="#a29af5" stroke="#a29af5"></path><path d="M115.1 0L116.1 38L170.6 35Z" fill="#74d8ec" stroke="#74d8ec"></path><path d="M170.6 35L112.1 88L174.6 114Z" fill="#74d8ec" stroke="#74d8ec"></path><path d="M116.1 38L112.1 88L170.6 35Z" fill="#62c3fd" stroke="#62c3fd"></path><path d="M200.6 0L115.1 0L170.6 35Z" fill="#b68cea" stroke="#b68cea"></path><path d="M73.5 54L77.5 109L112.1 88Z" fill="#7ab0ff" stroke="#7ab0ff"></path><path d="M617.4 200L683.9 200L678.9 145Z" fill="#a29af5" stroke="#a29af5"></path><path d="M678.9 145L743.5 98L670.9 89Z" fill="#7ab0ff" stroke="#7ab0ff"></path><path d="M70.5 200L121.1 200L136.1 165Z" fill="#61caf8" stroke="#61caf8"></path><path d="M136.1 165L121.1 200L183.6 200Z" fill="#8da6fc" stroke="#8da6fc"></path><path d="M683.9 200L724.5 152L678.9 145Z" fill="#a29af5" stroke="#a29af5"></path><path d="M724.5 152L743.5 98L678.9 145Z" fill="#84dde6" stroke="#84dde6"></path><path d="M73.5 54L112.1 88L116.1 38Z" fill="#61caf8" stroke="#61caf8"></path><path d="M112.1 88L77.5 109L136.1 165Z" fill="#68d1f2" stroke="#68d1f2"></path><path d="M115.1 0L73.5 54L116.1 38Z" fill="#6bbaff" stroke="#6bbaff"></path><path d="M743.5 98L753.5 66L670.9 66Z" fill="#a29af5" stroke="#a29af5"></path><path d="M683.9 200L726.5 200L724.5 152Z" fill="#7ab0ff" stroke="#7ab0ff"></path><path d="M800 135L800 91L743.5 98Z" fill="#8da6fc" stroke="#8da6fc"></path><path d="M800 91L800 38L753.5 66Z" fill="#61caf8" stroke="#61caf8"></path><path d="M753.5 66L752.5 0L681.9 0Z" fill="#61caf8" stroke="#61caf8"></path><path d="M0 110L57.5 137L77.5 109Z" fill="#8da6fc" stroke="#8da6fc"></path><path d="M77.5 109L57.5 137L136.1 165Z" fill="#7ab0ff" stroke="#7ab0ff"></path><path d="M57.5 137L70.5 200L136.1 165Z" fill="#b68cea" stroke="#b68cea"></path><path d="M115.1 0L45.5 0L73.5 54Z" fill="#74d8ec" stroke="#74d8ec"></path><path d="M73.5 54L0 61L77.5 109Z" fill="#c87edb" stroke="#c87edb"></path><path d="M800 91L753.5 66L743.5 98Z" fill="#b68cea" stroke="#b68cea"></path><path d="M753.5 66L800 38L752.5 0Z" fill="#8da6fc" stroke="#8da6fc"></path><path d="M800 135L743.5 98L724.5 152Z" fill="#a29af5" stroke="#a29af5"></path><path d="M800 38L800 0L752.5 0Z" fill="#b68cea" stroke="#b68cea"></path><path d="M800 200L800 135L724.5 152Z" fill="#b68cea" stroke="#b68cea"></path><path d="M45.5 0L0 61L73.5 54Z" fill="#6bbaff" stroke="#6bbaff"></path><path d="M57.5 137L0 200L70.5 200Z" fill="#b68cea" stroke="#b68cea"></path><path d="M726.5 200L800 200L724.5 152Z" fill="#68d1f2" stroke="#68d1f2"></path><path d="M0 61L0 110L77.5 109Z" fill="#a29af5" stroke="#a29af5"></path><path d="M45.5 0L0 0L0 61Z" fill="#68d1f2" stroke="#68d1f2"></path><path d="M0 110L0 145L57.5 137Z" fill="#6bbaff" stroke="#6bbaff"></path><path d="M0 145L0 200L57.5 137Z" fill="#7ab0ff" stroke="#7ab0ff"></path></g></svg>