<svg id="visual" viewBox="0 0 960 540" width="960" height="540" xmlns="http://www.w3.org/2000/svg" xmlns:xlink="http://www.w3.org/1999/xlink" version="1.1"><rect x="0" y="0" width="960" height="540" fill="#001220"></rect><path d="M0 287L8.5 281.5C17 276 34 265 50.8 263.7C67.7 262.3 84.3 270.7 101.2 268.5C118 266.3 135 253.7 151.8 237.5C168.7 221.3 185.3 201.7 202.2 211C219 220.3 236 258.7 252.8 289.7C269.7 320.7 286.3 344.3 303.2 356C320 367.7 337 367.3 353.8 338.3C370.7 309.3 387.3 251.7 404.2 223.5C421 195.3 438 196.7 454.8 224C471.7 251.3 488.3 304.7 505.2 327C522 349.3 539 340.7 555.8 313.7C572.7 286.7 589.3 241.3 606.2 236C623 230.7 640 265.3 656.8 262.7C673.7 260 690.3 220 707.2 221.2C724 222.3 741 264.7 757.8 274.2C774.7 283.7 791.3 260.3 808.2 260.2C825 260 842 283 858.8 303.8C875.7 324.7 892.3 343.3 909.2 328.7C926 314 943 266 951.5 242L960 218L960 541L951.5 541C943 541 926 541 909.2 541C892.3 541 875.7 541 858.8 541C842 541 825 541 808.2 541C791.3 541 774.7 541 757.8 541C741 541 724 541 707.2 541C690.3 541 673.7 541 656.8 541C640 541 623 541 606.2 541C589.3 541 572.7 541 555.8 541C539 541 522 541 505.2 541C488.3 541 471.7 541 454.8 541C438 541 421 541 404.2 541C387.3 541 370.7 541 353.8 541C337 541 320 541 303.2 541C286.3 541 269.7 541 252.8 541C236 541 219 541 202.2 541C185.3 541 168.7 541 151.8 541C135 541 118 541 101.2 541C84.3 541 67.7 541 50.8 541C34 541 17 541 8.5 541L0 541Z" fill="#69dbfa"></path><path d="M0 252L8.5 279.2C17 306.3 34 360.7 50.8 360.5C67.7 360.3 84.3 305.7 101.2 298.3C118 291 135 331 151.8 341.2C168.7 351.3 185.3 331.7 202.2 338.2C219 344.7 236 377.3 252.8 378C269.7 378.7 286.3 347.3 303.2 327.8C320 308.3 337 300.7 353.8 295C370.7 289.3 387.3 285.7 404.2 292.8C421 300 438 318 454.8 337.8C471.7 357.7 488.3 379.3 505.2 380.3C522 381.3 539 361.7 555.8 347.7C572.7 333.7 589.3 325.3 606.2 322.3C623 319.3 640 321.7 656.8 331.5C673.7 341.3 690.3 358.7 707.2 361.7C724 364.7 741 353.3 757.8 359.5C774.7 365.7 791.3 389.3 808.2 389.5C825 389.7 842 366.3 858.8 343C875.7 319.7 892.3 296.3 909.2 300.2C926 304 943 335 951.5 350.5L960 366L960 541L951.5 541C943 541 926 541 909.2 541C892.3 541 875.7 541 858.8 541C842 541 825 541 808.2 541C791.3 541 774.7 541 757.8 541C741 541 724 541 707.2 541C690.3 541 673.7 541 656.8 541C640 541 623 541 606.2 541C589.3 541 572.7 541 555.8 541C539 541 522 541 505.2 541C488.3 541 471.7 541 454.8 541C438 541 421 541 404.2 541C387.3 541 370.7 541 353.8 541C337 541 320 541 303.2 541C286.3 541 269.7 541 252.8 541C236 541 219 541 202.2 541C185.3 541 168.7 541 151.8 541C135 541 118 541 101.2 541C84.3 541 67.7 541 50.8 541C34 541 17 541 8.5 541L0 541Z" fill="#7cc2ff"></path><path d="M0 407L8.5 411C17 415 34 423 50.8 411.8C67.7 400.7 84.3 370.3 101.2 360.8C118 351.3 135 362.7 151.8 358.7C168.7 354.7 185.3 335.3 202.2 342C219 348.7 236 381.3 252.8 390.2C269.7 399 286.3 384 303.2 377C320 370 337 371 353.8 376C370.7 381 387.3 390 404.2 381.3C421 372.7 438 346.3 454.8 338.5C471.7 330.7 488.3 341.3 505.2 342.5C522 343.7 539 335.3 555.8 342.3C572.7 349.3 589.3 371.7 606.2 372.5C623 373.3 640 352.7 656.8 357.2C673.7 361.7 690.3 391.3 707.2 408.7C724 426 741 431 757.8 412.7C774.7 394.3 791.3 352.7 808.2 342.5C825 332.3 842 353.7 858.8 370.7C875.7 387.7 892.3 400.3 909.2 407.5C926 414.7 943 416.3 951.5 417.2L960 418L960 541L951.5 541C943 541 926 541 909.2 541C892.3 541 875.7 541 858.8 541C842 541 825 541 808.2 541C791.3 541 774.7 541 757.8 541C741 541 724 541 707.2 541C690.3 541 673.7 541 656.8 541C640 541 623 541 606.2 541C589.3 541 572.7 541 555.8 541C539 541 522 541 505.2 541C488.3 541 471.7 541 454.8 541C438 541 421 541 404.2 541C387.3 541 370.7 541 353.8 541C337 541 320 541 303.2 541C286.3 541 269.7 541 252.8 541C236 541 219 541 202.2 541C185.3 541 168.7 541 151.8 541C135 541 118 541 101.2 541C84.3 541 67.7 541 50.8 541C34 541 17 541 8.5 541L0 541Z" fill="#baa0f5"></path><path d="M0 391L8.5 396.2C17 401.3 34 411.7 50.8 424.5C67.7 437.3 84.3 452.7 101.2 460.2C118 467.7 135 467.3 151.8 453.3C168.7 439.3 185.3 411.7 202.2 401.3C219 391 236 398 252.8 409.5C269.7 421 286.3 437 303.2 440.3C320 443.7 337 434.3 353.8 426.2C370.7 418 387.3 411 404.2 407.8C421 404.7 438 405.3 454.8 404.2C471.7 403 488.3 400 505.2 394.7C522 389.3 539 381.7 555.8 393.8C572.7 406 589.3 438 606.2 451C623 464 640 458 656.8 450.8C673.7 443.7 690.3 435.3 707.2 425.8C724 416.3 741 405.7 757.8 397.2C774.7 388.7 791.3 382.3 808.2 394C825 405.7 842 435.3 858.8 439.3C875.7 443.3 892.3 421.7 909.2 418.2C926 414.7 943 429.3 951.5 436.7L960 444L960 541L951.5 541C943 541 926 541 909.2 541C892.3 541 875.7 541 858.8 541C842 541 825 541 808.2 541C791.3 541 774.7 541 757.8 541C741 541 724 541 707.2 541C690.3 541 673.7 541 656.8 541C640 541 623 541 606.2 541C589.3 541 572.7 541 555.8 541C539 541 522 541 505.2 541C488.3 541 471.7 541 454.8 541C438 541 421 541 404.2 541C387.3 541 370.7 541 353.8 541C337 541 320 541 303.2 541C286.3 541 269.7 541 252.8 541C236 541 219 541 202.2 541C185.3 541 168.7 541 151.8 541C135 541 118 541 101.2 541C84.3 541 67.7 541 50.8 541C34 541 17 541 8.5 541L0 541Z" fill="#e979bc"></path><path d="M0 464L8.5 463.2C17 462.3 34 460.7 50.8 467C67.7 473.3 84.3 487.7 101.2 483.2C118 478.7 135 455.3 151.8 444.3C168.7 433.3 185.3 434.7 202.2 444.2C219 453.7 236 471.3 252.8 477.5C269.7 483.7 286.3 478.3 303.2 480.7C320 483 337 493 353.8 499C370.7 505 387.3 507 404.2 496.8C421 486.7 438 464.3 454.8 450.2C471.7 436 488.3 430 505.2 433.3C522 436.7 539 449.3 555.8 460.7C572.7 472 589.3 482 606.2 477.5C623 473 640 454 656.8 448.5C673.7 443 690.3 451 707.2 458C724 465 741 471 757.8 466.5C774.7 462 791.3 447 808.2 450.3C825 453.7 842 475.3 858.8 476.8C875.7 478.3 892.3 459.7 909.2 450.7C926 441.7 943 442.3 951.5 442.7L960 443L960 541L951.5 541C943 541 926 541 909.2 541C892.3 541 875.7 541 858.8 541C842 541 825 541 808.2 541C791.3 541 774.7 541 757.8 541C741 541 724 541 707.2 541C690.3 541 673.7 541 656.8 541C640 541 623 541 606.2 541C589.3 541 572.7 541 555.8 541C539 541 522 541 505.2 541C488.3 541 471.7 541 454.8 541C438 541 421 541 404.2 541C387.3 541 370.7 541 353.8 541C337 541 320 541 303.2 541C286.3 541 269.7 541 252.8 541C236 541 219 541 202.2 541C185.3 541 168.7 541 151.8 541C135 541 118 541 101.2 541C84.3 541 67.7 541 50.8 541C34 541 17 541 8.5 541L0 541Z" fill="#ef626c"></path></svg>