<svg id="visual" viewBox="0 0 960 540" width="960" height="540" xmlns="http://www.w3.org/2000/svg" xmlns:xlink="http://www.w3.org/1999/xlink" version="1.1"><rect x="0" y="0" width="960" height="540" fill="#001220"></rect><path d="M0 261L8.8 264.7C17.7 268.3 35.3 275.7 53.2 270.8C71 266 89 249 106.8 241.3C124.7 233.7 142.3 235.3 160 237C177.7 238.7 195.3 240.3 213.2 240.2C231 240 249 238 266.8 243C284.7 248 302.3 260 320 262.5C337.7 265 355.3 258 373.2 258.8C391 259.7 409 268.3 426.8 262.7C444.7 257 462.3 237 480 233.3C497.7 229.7 515.3 242.3 533.2 249.5C551 256.7 569 258.3 586.8 260C604.7 261.7 622.3 263.3 640 260.3C657.7 257.3 675.3 249.7 693.2 242.2C711 234.7 729 227.3 746.8 223.3C764.7 219.3 782.3 218.7 800 229.7C817.7 240.7 835.3 263.3 853.2 264.5C871 265.7 889 245.3 906.8 246.8C924.7 248.3 942.3 271.7 951.2 283.3L960 295L960 541L951.2 541C942.3 541 924.7 541 906.8 541C889 541 871 541 853.2 541C835.3 541 817.7 541 800 541C782.3 541 764.7 541 746.8 541C729 541 711 541 693.2 541C675.3 541 657.7 541 640 541C622.3 541 604.7 541 586.8 541C569 541 551 541 533.2 541C515.3 541 497.7 541 480 541C462.3 541 444.7 541 426.8 541C409 541 391 541 373.2 541C355.3 541 337.7 541 320 541C302.3 541 284.7 541 266.8 541C249 541 231 541 213.2 541C195.3 541 177.7 541 160 541C142.3 541 124.7 541 106.8 541C89 541 71 541 53.2 541C35.3 541 17.7 541 8.8 541L0 541Z" fill="#260809"></path><path d="M0 307L8.8 304.3C17.7 301.7 35.3 296.3 53.2 286.3C71 276.3 89 261.7 106.8 254.7C124.7 247.7 142.3 248.3 160 254.3C177.7 260.3 195.3 271.7 213.2 279.8C231 288 249 293 266.8 289.7C284.7 286.3 302.3 274.7 320 268.8C337.7 263 355.3 263 373.2 268.2C391 273.3 409 283.7 426.8 281.2C444.7 278.7 462.3 263.3 480 265C497.7 266.7 515.3 285.3 533.2 284.5C551 283.7 569 263.3 586.8 264.8C604.7 266.3 622.3 289.7 640 296.2C657.7 302.7 675.3 292.3 693.2 293.2C711 294 729 306 746.8 308.7C764.7 311.3 782.3 304.7 800 301C817.7 297.3 835.3 296.7 853.2 288.7C871 280.7 889 265.3 906.8 258.5C924.7 251.7 942.3 253.3 951.2 254.2L960 255L960 541L951.2 541C942.3 541 924.7 541 906.8 541C889 541 871 541 853.2 541C835.3 541 817.7 541 800 541C782.3 541 764.7 541 746.8 541C729 541 711 541 693.2 541C675.3 541 657.7 541 640 541C622.3 541 604.7 541 586.8 541C569 541 551 541 533.2 541C515.3 541 497.7 541 480 541C462.3 541 444.7 541 426.8 541C409 541 391 541 373.2 541C355.3 541 337.7 541 320 541C302.3 541 284.7 541 266.8 541C249 541 231 541 213.2 541C195.3 541 177.7 541 160 541C142.3 541 124.7 541 106.8 541C89 541 71 541 53.2 541C35.3 541 17.7 541 8.8 541L0 541Z" fill="#280d16"></path><path d="M0 284L8.8 284C17.7 284 35.3 284 53.2 284.5C71 285 89 286 106.8 288.8C124.7 291.7 142.3 296.3 160 301.5C177.7 306.7 195.3 312.3 213.2 316.8C231 321.3 249 324.7 266.8 320.3C284.7 316 302.3 304 320 294.8C337.7 285.7 355.3 279.3 373.2 282C391 284.7 409 296.3 426.8 302.5C444.7 308.7 462.3 309.3 480 303.8C497.7 298.3 515.3 286.7 533.2 285.5C551 284.3 569 293.7 586.8 293.5C604.7 293.3 622.3 283.7 640 282.5C657.7 281.3 675.3 288.7 693.2 299C711 309.3 729 322.7 746.8 320.7C764.7 318.7 782.3 301.3 800 302.7C817.7 304 835.3 324 853.2 329.5C871 335 889 326 906.8 319.8C924.7 313.7 942.3 310.3 951.2 308.7L960 307L960 541L951.2 541C942.3 541 924.7 541 906.8 541C889 541 871 541 853.2 541C835.3 541 817.7 541 800 541C782.3 541 764.7 541 746.8 541C729 541 711 541 693.2 541C675.3 541 657.7 541 640 541C622.3 541 604.7 541 586.8 541C569 541 551 541 533.2 541C515.3 541 497.7 541 480 541C462.3 541 444.7 541 426.8 541C409 541 391 541 373.2 541C355.3 541 337.7 541 320 541C302.3 541 284.7 541 266.8 541C249 541 231 541 213.2 541C195.3 541 177.7 541 160 541C142.3 541 124.7 541 106.8 541C89 541 71 541 53.2 541C35.3 541 17.7 541 8.8 541L0 541Z" fill="#2a121f"></path><path d="M0 346L8.8 339C17.7 332 35.3 318 53.2 313.8C71 309.7 89 315.3 106.8 314.3C124.7 313.3 142.3 305.7 160 311.5C177.7 317.3 195.3 336.7 213.2 343.8C231 351 249 346 266.8 339.5C284.7 333 302.3 325 320 322.7C337.7 320.3 355.3 323.7 373.2 328.8C391 334 409 341 426.8 341.8C444.7 342.7 462.3 337.3 480 337.2C497.7 337 515.3 342 533.2 341.7C551 341.3 569 335.7 586.8 336.3C604.7 337 622.3 344 640 349C657.7 354 675.3 357 693.2 357.5C711 358 729 356 746.8 353C764.7 350 782.3 346 800 338.2C817.7 330.3 835.3 318.7 853.2 316.8C871 315 889 323 906.8 328.8C924.7 334.7 942.3 338.3 951.2 340.2L960 342L960 541L951.2 541C942.3 541 924.7 541 906.8 541C889 541 871 541 853.2 541C835.3 541 817.7 541 800 541C782.3 541 764.7 541 746.8 541C729 541 711 541 693.2 541C675.3 541 657.7 541 640 541C622.3 541 604.7 541 586.8 541C569 541 551 541 533.2 541C515.3 541 497.7 541 480 541C462.3 541 444.7 541 426.8 541C409 541 391 541 373.2 541C355.3 541 337.7 541 320 541C302.3 541 284.7 541 266.8 541C249 541 231 541 213.2 541C195.3 541 177.7 541 160 541C142.3 541 124.7 541 106.8 541C89 541 71 541 53.2 541C35.3 541 17.7 541 8.8 541L0 541Z" fill="#2a1728"></path><path d="M0 370L8.8 373.2C17.7 376.3 35.3 382.7 53.2 385.5C71 388.3 89 387.7 106.8 383.7C124.7 379.7 142.3 372.3 160 362.2C177.7 352 195.3 339 213.2 332C231 325 249 324 266.8 324.7C284.7 325.3 302.3 327.7 320 329C337.7 330.3 355.3 330.7 373.2 333C391 335.3 409 339.7 426.8 342C444.7 344.3 462.3 344.7 480 346.8C497.7 349 515.3 353 533.2 358.5C551 364 569 371 586.8 371.2C604.7 371.3 622.3 364.7 640 365.3C657.7 366 675.3 374 693.2 375.3C711 376.7 729 371.3 746.8 369.2C764.7 367 782.3 368 800 362.7C817.7 357.3 835.3 345.7 853.2 347.8C871 350 889 366 906.8 367C924.7 368 942.3 354 951.2 347L960 340L960 541L951.2 541C942.3 541 924.7 541 906.8 541C889 541 871 541 853.2 541C835.3 541 817.7 541 800 541C782.3 541 764.7 541 746.8 541C729 541 711 541 693.2 541C675.3 541 657.7 541 640 541C622.3 541 604.7 541 586.8 541C569 541 551 541 533.2 541C515.3 541 497.7 541 480 541C462.3 541 444.7 541 426.8 541C409 541 391 541 373.2 541C355.3 541 337.7 541 320 541C302.3 541 284.7 541 266.8 541C249 541 231 541 213.2 541C195.3 541 177.7 541 160 541C142.3 541 124.7 541 106.8 541C89 541 71 541 53.2 541C35.3 541 17.7 541 8.8 541L0 541Z" fill="#281d31"></path><path d="M0 395L8.8 396C17.7 397 35.3 399 53.2 395.3C71 391.7 89 382.3 106.8 380.5C124.7 378.7 142.3 384.3 160 387.7C177.7 391 195.3 392 213.2 393.7C231 395.3 249 397.7 266.8 391.5C284.7 385.3 302.3 370.7 320 367.5C337.7 364.3 355.3 372.7 373.2 378.3C391 384 409 387 426.8 386.3C444.7 385.7 462.3 381.3 480 384.8C497.7 388.3 515.3 399.7 533.2 396C551 392.3 569 373.7 586.8 365.8C604.7 358 622.3 361 640 370.3C657.7 379.7 675.3 395.3 693.2 402.5C711 409.7 729 408.3 746.8 398.7C764.7 389 782.3 371 800 364C817.7 357 835.3 361 853.2 362.5C871 364 889 363 906.8 364.2C924.7 365.3 942.3 368.7 951.2 370.3L960 372L960 541L951.2 541C942.3 541 924.7 541 906.8 541C889 541 871 541 853.2 541C835.3 541 817.7 541 800 541C782.3 541 764.7 541 746.8 541C729 541 711 541 693.2 541C675.3 541 657.7 541 640 541C622.3 541 604.7 541 586.8 541C569 541 551 541 533.2 541C515.3 541 497.7 541 480 541C462.3 541 444.7 541 426.8 541C409 541 391 541 373.2 541C355.3 541 337.7 541 320 541C302.3 541 284.7 541 266.8 541C249 541 231 541 213.2 541C195.3 541 177.7 541 160 541C142.3 541 124.7 541 106.8 541C89 541 71 541 53.2 541C35.3 541 17.7 541 8.8 541L0 541Z" fill="#242338"></path><path d="M0 385L8.8 386.7C17.7 388.3 35.3 391.7 53.2 392.3C71 393 89 391 106.8 390C124.7 389 142.3 389 160 391.2C177.7 393.3 195.3 397.7 213.2 398.7C231 399.7 249 397.3 266.8 402C284.7 406.7 302.3 418.3 320 416.8C337.7 415.3 355.3 400.7 373.2 402.3C391 404 409 422 426.8 430.7C444.7 439.3 462.3 438.7 480 434.8C497.7 431 515.3 424 533.2 416.7C551 409.3 569 401.7 586.8 397C604.7 392.3 622.3 390.7 640 396.3C657.7 402 675.3 415 693.2 419.8C711 424.7 729 421.3 746.8 415.5C764.7 409.7 782.3 401.3 800 397.5C817.7 393.7 835.3 394.3 853.2 399.8C871 405.3 889 415.7 906.8 421.3C924.7 427 942.3 428 951.2 428.5L960 429L960 541L951.2 541C942.3 541 924.7 541 906.8 541C889 541 871 541 853.2 541C835.3 541 817.7 541 800 541C782.3 541 764.7 541 746.8 541C729 541 711 541 693.2 541C675.3 541 657.7 541 640 541C622.3 541 604.7 541 586.8 541C569 541 551 541 533.2 541C515.3 541 497.7 541 480 541C462.3 541 444.7 541 426.8 541C409 541 391 541 373.2 541C355.3 541 337.7 541 320 541C302.3 541 284.7 541 266.8 541C249 541 231 541 213.2 541C195.3 541 177.7 541 160 541C142.3 541 124.7 541 106.8 541C89 541 71 541 53.2 541C35.3 541 17.7 541 8.8 541L0 541Z" fill="#1f293e"></path><path d="M0 417L8.8 418.2C17.7 419.3 35.3 421.7 53.2 429.3C71 437 89 450 106.8 455.2C124.7 460.3 142.3 457.7 160 453.3C177.7 449 195.3 443 213.2 444.8C231 446.7 249 456.3 266.8 453.8C284.7 451.3 302.3 436.7 320 430C337.7 423.3 355.3 424.7 373.2 428.3C391 432 409 438 426.8 440C444.7 442 462.3 440 480 440.7C497.7 441.3 515.3 444.7 533.2 446.7C551 448.7 569 449.3 586.8 452.2C604.7 455 622.3 460 640 454.2C657.7 448.3 675.3 431.7 693.2 424.7C711 417.7 729 420.3 746.8 421.2C764.7 422 782.3 421 800 419C817.7 417 835.3 414 853.2 411.7C871 409.3 889 407.7 906.8 412.7C924.7 417.7 942.3 429.3 951.2 435.2L960 441L960 541L951.2 541C942.3 541 924.7 541 906.8 541C889 541 871 541 853.2 541C835.3 541 817.7 541 800 541C782.3 541 764.7 541 746.8 541C729 541 711 541 693.2 541C675.3 541 657.7 541 640 541C622.3 541 604.7 541 586.8 541C569 541 551 541 533.2 541C515.3 541 497.7 541 480 541C462.3 541 444.7 541 426.8 541C409 541 391 541 373.2 541C355.3 541 337.7 541 320 541C302.3 541 284.7 541 266.8 541C249 541 231 541 213.2 541C195.3 541 177.7 541 160 541C142.3 541 124.7 541 106.8 541C89 541 71 541 53.2 541C35.3 541 17.7 541 8.8 541L0 541Z" fill="#192f42"></path><path d="M0 486L8.8 484.2C17.7 482.3 35.3 478.7 53.2 473.2C71 467.7 89 460.3 106.8 455.5C124.7 450.7 142.3 448.3 160 448.8C177.7 449.3 195.3 452.7 213.2 453.5C231 454.3 249 452.7 266.8 454.8C284.7 457 302.3 463 320 467.7C337.7 472.3 355.3 475.7 373.2 476.7C391 477.7 409 476.3 426.8 477.3C444.7 478.3 462.3 481.7 480 475.8C497.7 470 515.3 455 533.2 451.8C551 448.7 569 457.3 586.8 461.3C604.7 465.3 622.3 464.7 640 468.2C657.7 471.7 675.3 479.3 693.2 476.3C711 473.3 729 459.7 746.8 458.3C764.7 457 782.3 468 800 466.7C817.7 465.3 835.3 451.7 853.2 445.3C871 439 889 440 906.8 447.7C924.7 455.3 942.3 469.7 951.2 476.8L960 484L960 541L951.2 541C942.3 541 924.7 541 906.8 541C889 541 871 541 853.2 541C835.3 541 817.7 541 800 541C782.3 541 764.7 541 746.8 541C729 541 711 541 693.2 541C675.3 541 657.7 541 640 541C622.3 541 604.7 541 586.8 541C569 541 551 541 533.2 541C515.3 541 497.7 541 480 541C462.3 541 444.7 541 426.8 541C409 541 391 541 373.2 541C355.3 541 337.7 541 320 541C302.3 541 284.7 541 266.8 541C249 541 231 541 213.2 541C195.3 541 177.7 541 160 541C142.3 541 124.7 541 106.8 541C89 541 71 541 53.2 541C35.3 541 17.7 541 8.8 541L0 541Z" fill="#153544"></path><path d="M0 476L8.8 479C17.7 482 35.3 488 53.2 492.3C71 496.7 89 499.3 106.8 500.2C124.7 501 142.3 500 160 498.3C177.7 496.7 195.3 494.3 213.2 495.5C231 496.7 249 501.3 266.8 504.5C284.7 507.7 302.3 509.3 320 504.8C337.7 500.3 355.3 489.7 373.2 484.8C391 480 409 481 426.8 477.8C444.7 474.7 462.3 467.3 480 470.3C497.7 473.3 515.3 486.7 533.2 494.5C551 502.3 569 504.7 586.8 501.2C604.7 497.7 622.3 488.3 640 486.8C657.7 485.3 675.3 491.7 693.2 494.3C711 497 729 496 746.8 495.8C764.7 495.7 782.3 496.3 800 490.3C817.7 484.3 835.3 471.7 853.2 470.3C871 469 889 479 906.8 485.2C924.7 491.3 942.3 493.7 951.2 494.8L960 496L960 541L951.2 541C942.3 541 924.7 541 906.8 541C889 541 871 541 853.2 541C835.3 541 817.7 541 800 541C782.3 541 764.7 541 746.8 541C729 541 711 541 693.2 541C675.3 541 657.7 541 640 541C622.3 541 604.7 541 586.8 541C569 541 551 541 533.2 541C515.3 541 497.7 541 480 541C462.3 541 444.7 541 426.8 541C409 541 391 541 373.2 541C355.3 541 337.7 541 320 541C302.3 541 284.7 541 266.8 541C249 541 231 541 213.2 541C195.3 541 177.7 541 160 541C142.3 541 124.7 541 106.8 541C89 541 71 541 53.2 541C35.3 541 17.7 541 8.8 541L0 541Z" fill="#143a45"></path><path d="M0 525L8.8 525.8C17.7 526.7 35.3 528.3 53.2 530.7C71 533 89 536 106.8 537.3C124.7 538.7 142.3 538.3 160 530C177.7 521.7 195.3 505.3 213.2 501.7C231 498 249 507 266.8 507.7C284.7 508.3 302.3 500.7 320 504.3C337.7 508 355.3 523 373.2 524.3C391 525.7 409 513.3 426.8 509.2C444.7 505 462.3 509 480 508.3C497.7 507.7 515.3 502.3 533.2 503.2C551 504 569 511 586.8 513.2C604.7 515.3 622.3 512.7 640 510.8C657.7 509 675.3 508 693.2 512.7C711 517.3 729 527.7 746.8 530.3C764.7 533 782.3 528 800 520C817.7 512 835.3 501 853.2 496.8C871 492.7 889 495.3 906.8 498C924.7 500.7 942.3 503.3 951.2 504.7L960 506L960 541L951.2 541C942.3 541 924.7 541 906.8 541C889 541 871 541 853.2 541C835.3 541 817.7 541 800 541C782.3 541 764.7 541 746.8 541C729 541 711 541 693.2 541C675.3 541 657.7 541 640 541C622.3 541 604.7 541 586.8 541C569 541 551 541 533.2 541C515.3 541 497.7 541 480 541C462.3 541 444.7 541 426.8 541C409 541 391 541 373.2 541C355.3 541 337.7 541 320 541C302.3 541 284.7 541 266.8 541C249 541 231 541 213.2 541C195.3 541 177.7 541 160 541C142.3 541 124.7 541 106.8 541C89 541 71 541 53.2 541C35.3 541 17.7 541 8.8 541L0 541Z" fill="#183f44"></path></svg>