<svg id="visual" viewBox="0 0 960 540" width="960" height="540" xmlns="http://www.w3.org/2000/svg" xmlns:xlink="http://www.w3.org/1999/xlink" version="1.1"><rect x="0" y="0" width="960" height="540" fill="#001220"></rect><path d="M0 201L8 190C16 179 32 157 48 141.8C64 126.7 80 118.3 96 120.5C112 122.7 128 135.3 144 140.2C160 145 176 142 192 137.7C208 133.3 224 127.7 240 127.8C256 128 272 134 288 133C304 132 320 124 336 132.5C352 141 368 166 384 164.7C400 163.3 416 135.7 432 133.3C448 131 464 154 480 156.5C496 159 512 141 528 133.2C544 125.3 560 127.7 576 134.2C592 140.7 608 151.3 624 158.3C640 165.3 656 168.7 672 172.2C688 175.7 704 179.3 720 184.7C736 190 752 197 768 196C784 195 800 186 816 185.3C832 184.7 848 192.3 864 181.3C880 170.3 896 140.7 912 135.8C928 131 944 151 952 161L960 171L960 0L952 0C944 0 928 0 912 0C896 0 880 0 864 0C848 0 832 0 816 0C800 0 784 0 768 0C752 0 736 0 720 0C704 0 688 0 672 0C656 0 640 0 624 0C608 0 592 0 576 0C560 0 544 0 528 0C512 0 496 0 480 0C464 0 448 0 432 0C416 0 400 0 384 0C368 0 352 0 336 0C320 0 304 0 288 0C272 0 256 0 240 0C224 0 208 0 192 0C176 0 160 0 144 0C128 0 112 0 96 0C80 0 64 0 48 0C32 0 16 0 8 0L0 0Z" fill="#1d0827"></path><path d="M0 148L8 142.3C16 136.7 32 125.3 48 114.7C64 104 80 94 96 95.8C112 97.7 128 111.3 144 112.2C160 113 176 101 192 105.3C208 109.7 224 130.3 240 128.5C256 126.7 272 102.3 288 97.2C304 92 320 106 336 108.3C352 110.7 368 101.3 384 98.7C400 96 416 100 432 110C448 120 464 136 480 140.7C496 145.3 512 138.7 528 136.5C544 134.3 560 136.7 576 130.5C592 124.3 608 109.7 624 105.3C640 101 656 107 672 116.8C688 126.7 704 140.3 720 148.8C736 157.3 752 160.7 768 151C784 141.3 800 118.7 816 105C832 91.3 848 86.7 864 83.7C880 80.7 896 79.3 912 90.5C928 101.7 944 125.3 952 137.2L960 149L960 0L952 0C944 0 928 0 912 0C896 0 880 0 864 0C848 0 832 0 816 0C800 0 784 0 768 0C752 0 736 0 720 0C704 0 688 0 672 0C656 0 640 0 624 0C608 0 592 0 576 0C560 0 544 0 528 0C512 0 496 0 480 0C464 0 448 0 432 0C416 0 400 0 384 0C368 0 352 0 336 0C320 0 304 0 288 0C272 0 256 0 240 0C224 0 208 0 192 0C176 0 160 0 144 0C128 0 112 0 96 0C80 0 64 0 48 0C32 0 16 0 8 0L0 0Z" fill="#334162"></path><path d="M0 109L8 104.7C16 100.3 32 91.7 48 89.2C64 86.7 80 90.3 96 93.7C112 97 128 100 144 104C160 108 176 113 192 107.2C208 101.3 224 84.7 240 74.2C256 63.7 272 59.3 288 66C304 72.7 320 90.3 336 97.8C352 105.3 368 102.7 384 100.3C400 98 416 96 432 96.2C448 96.3 464 98.7 480 103C496 107.3 512 113.7 528 113.5C544 113.3 560 106.7 576 101C592 95.3 608 90.7 624 82.8C640 75 656 64 672 64.8C688 65.7 704 78.3 720 78.3C736 78.3 752 65.7 768 68.2C784 70.7 800 88.3 816 97.8C832 107.3 848 108.7 864 110.7C880 112.7 896 115.3 912 109C928 102.7 944 87.3 952 79.7L960 72L960 0L952 0C944 0 928 0 912 0C896 0 880 0 864 0C848 0 832 0 816 0C800 0 784 0 768 0C752 0 736 0 720 0C704 0 688 0 672 0C656 0 640 0 624 0C608 0 592 0 576 0C560 0 544 0 528 0C512 0 496 0 480 0C464 0 448 0 432 0C416 0 400 0 384 0C368 0 352 0 336 0C320 0 304 0 288 0C272 0 256 0 240 0C224 0 208 0 192 0C176 0 160 0 144 0C128 0 112 0 96 0C80 0 64 0 48 0C32 0 16 0 8 0L0 0Z" fill="#507e98"></path><path d="M0 57L8 58.5C16 60 32 63 48 62C64 61 80 56 96 49.8C112 43.7 128 36.3 144 36C160 35.7 176 42.3 192 43.2C208 44 224 39 240 43C256 47 272 60 288 61C304 62 320 51 336 51.8C352 52.7 368 65.3 384 65.8C400 66.3 416 54.7 432 54.7C448 54.7 464 66.3 480 71.8C496 77.3 512 76.7 528 70.2C544 63.7 560 51.3 576 44C592 36.7 608 34.3 624 38C640 41.7 656 51.3 672 52.3C688 53.3 704 45.7 720 45.8C736 46 752 54 768 52.3C784 50.7 800 39.3 816 41.7C832 44 848 60 864 64.7C880 69.3 896 62.7 912 58.3C928 54 944 52 952 51L960 50L960 0L952 0C944 0 928 0 912 0C896 0 880 0 864 0C848 0 832 0 816 0C800 0 784 0 768 0C752 0 736 0 720 0C704 0 688 0 672 0C656 0 640 0 624 0C608 0 592 0 576 0C560 0 544 0 528 0C512 0 496 0 480 0C464 0 448 0 432 0C416 0 400 0 384 0C368 0 352 0 336 0C320 0 304 0 288 0C272 0 256 0 240 0C224 0 208 0 192 0C176 0 160 0 144 0C128 0 112 0 96 0C80 0 64 0 48 0C32 0 16 0 8 0L0 0Z" fill="#83bdc5"></path></svg>