<svg id="visual" viewBox="0 0 960 540" width="960" height="540" xmlns="http://www.w3.org/2000/svg" xmlns:xlink="http://www.w3.org/1999/xlink" version="1.1"><rect x="0" y="0" width="960" height="540" fill="#001220"></rect><path d="M0 338L8.8 329.3C17.7 320.7 35.3 303.3 53.2 298C71 292.7 89 299.3 106.8 306.7C124.7 314 142.3 322 160 326C177.7 330 195.3 330 213.2 327.5C231 325 249 320 266.8 323C284.7 326 302.3 337 320 332.5C337.7 328 355.3 308 373.2 299.5C391 291 409 294 426.8 295.3C444.7 296.7 462.3 296.3 480 307.2C497.7 318 515.3 340 533.2 346.2C551 352.3 569 342.7 586.8 336.8C604.7 331 622.3 329 640 330.5C657.7 332 675.3 337 693.2 342.3C711 347.7 729 353.3 746.8 350.7C764.7 348 782.3 337 800 332.5C817.7 328 835.3 330 853.2 325.3C871 320.7 889 309.3 906.8 307.3C924.7 305.3 942.3 312.7 951.2 316.3L960 320L960 0L951.2 0C942.3 0 924.7 0 906.8 0C889 0 871 0 853.2 0C835.3 0 817.7 0 800 0C782.3 0 764.7 0 746.8 0C729 0 711 0 693.2 0C675.3 0 657.7 0 640 0C622.3 0 604.7 0 586.8 0C569 0 551 0 533.2 0C515.3 0 497.7 0 480 0C462.3 0 444.7 0 426.8 0C409 0 391 0 373.2 0C355.3 0 337.7 0 320 0C302.3 0 284.7 0 266.8 0C249 0 231 0 213.2 0C195.3 0 177.7 0 160 0C142.3 0 124.7 0 106.8 0C89 0 71 0 53.2 0C35.3 0 17.7 0 8.8 0L0 0Z" fill="#1d0827"></path><path d="M0 258L8.8 260.2C17.7 262.3 35.3 266.7 53.2 269.7C71 272.7 89 274.3 106.8 281.7C124.7 289 142.3 302 160 303.7C177.7 305.3 195.3 295.7 213.2 289.5C231 283.3 249 280.7 266.8 289.8C284.7 299 302.3 320 320 324.5C337.7 329 355.3 317 373.2 310.8C391 304.7 409 304.3 426.8 296.7C444.7 289 462.3 274 480 272.5C497.7 271 515.3 283 533.2 285.3C551 287.7 569 280.3 586.8 275.7C604.7 271 622.3 269 640 277.8C657.7 286.7 675.3 306.3 693.2 312.7C711 319 729 312 746.8 303.5C764.7 295 782.3 285 800 283.7C817.7 282.3 835.3 289.7 853.2 289.5C871 289.3 889 281.7 906.8 289.2C924.7 296.7 942.3 319.3 951.2 330.7L960 342L960 0L951.2 0C942.3 0 924.7 0 906.8 0C889 0 871 0 853.2 0C835.3 0 817.7 0 800 0C782.3 0 764.7 0 746.8 0C729 0 711 0 693.2 0C675.3 0 657.7 0 640 0C622.3 0 604.7 0 586.8 0C569 0 551 0 533.2 0C515.3 0 497.7 0 480 0C462.3 0 444.7 0 426.8 0C409 0 391 0 373.2 0C355.3 0 337.7 0 320 0C302.3 0 284.7 0 266.8 0C249 0 231 0 213.2 0C195.3 0 177.7 0 160 0C142.3 0 124.7 0 106.8 0C89 0 71 0 53.2 0C35.3 0 17.7 0 8.8 0L0 0Z" fill="#241a39"></path><path d="M0 249L8.8 251.2C17.7 253.3 35.3 257.7 53.2 267.3C71 277 89 292 106.8 287.7C124.7 283.3 142.3 259.7 160 252C177.7 244.3 195.3 252.7 213.2 258.7C231 264.7 249 268.3 266.8 271.7C284.7 275 302.3 278 320 284.7C337.7 291.3 355.3 301.7 373.2 302.7C391 303.7 409 295.3 426.8 289.7C444.7 284 462.3 281 480 282.3C497.7 283.7 515.3 289.3 533.2 290.8C551 292.3 569 289.7 586.8 290.8C604.7 292 622.3 297 640 301C657.7 305 675.3 308 693.2 305.7C711 303.3 729 295.7 746.8 287.2C764.7 278.7 782.3 269.3 800 266.7C817.7 264 835.3 268 853.2 270.7C871 273.3 889 274.7 906.8 271C924.7 267.3 942.3 258.7 951.2 254.3L960 250L960 0L951.2 0C942.3 0 924.7 0 906.8 0C889 0 871 0 853.2 0C835.3 0 817.7 0 800 0C782.3 0 764.7 0 746.8 0C729 0 711 0 693.2 0C675.3 0 657.7 0 640 0C622.3 0 604.7 0 586.8 0C569 0 551 0 533.2 0C515.3 0 497.7 0 480 0C462.3 0 444.7 0 426.8 0C409 0 391 0 373.2 0C355.3 0 337.7 0 320 0C302.3 0 284.7 0 266.8 0C249 0 231 0 213.2 0C195.3 0 177.7 0 160 0C142.3 0 124.7 0 106.8 0C89 0 71 0 53.2 0C35.3 0 17.7 0 8.8 0L0 0Z" fill="#2a2b4b"></path><path d="M0 213L8.8 214C17.7 215 35.3 217 53.2 216C71 215 89 211 106.8 220.5C124.7 230 142.3 253 160 252.3C177.7 251.7 195.3 227.3 213.2 218C231 208.7 249 214.3 266.8 217.8C284.7 221.3 302.3 222.7 320 227.5C337.7 232.3 355.3 240.7 373.2 245.7C391 250.7 409 252.3 426.8 250.8C444.7 249.3 462.3 244.7 480 240.8C497.7 237 515.3 234 533.2 236C551 238 569 245 586.8 244.5C604.7 244 622.3 236 640 241C657.7 246 675.3 264 693.2 266.8C711 269.7 729 257.3 746.8 254.2C764.7 251 782.3 257 800 257.5C817.7 258 835.3 253 853.2 243.7C871 234.3 889 220.7 906.8 218.8C924.7 217 942.3 227 951.2 232L960 237L960 0L951.2 0C942.3 0 924.7 0 906.8 0C889 0 871 0 853.2 0C835.3 0 817.7 0 800 0C782.3 0 764.7 0 746.8 0C729 0 711 0 693.2 0C675.3 0 657.7 0 640 0C622.3 0 604.7 0 586.8 0C569 0 551 0 533.2 0C515.3 0 497.7 0 480 0C462.3 0 444.7 0 426.8 0C409 0 391 0 373.2 0C355.3 0 337.7 0 320 0C302.3 0 284.7 0 266.8 0C249 0 231 0 213.2 0C195.3 0 177.7 0 160 0C142.3 0 124.7 0 106.8 0C89 0 71 0 53.2 0C35.3 0 17.7 0 8.8 0L0 0Z" fill="#303c5d"></path><path d="M0 236L8.8 233.7C17.7 231.3 35.3 226.7 53.2 223.2C71 219.7 89 217.3 106.8 219.8C124.7 222.3 142.3 229.7 160 227.8C177.7 226 195.3 215 213.2 206C231 197 249 190 266.8 186.7C284.7 183.3 302.3 183.7 320 187.5C337.7 191.3 355.3 198.7 373.2 208.5C391 218.3 409 230.7 426.8 236C444.7 241.3 462.3 239.7 480 238.7C497.7 237.7 515.3 237.3 533.2 239.3C551 241.3 569 245.7 586.8 239.5C604.7 233.3 622.3 216.7 640 215.7C657.7 214.7 675.3 229.3 693.2 233C711 236.7 729 229.3 746.8 228.7C764.7 228 782.3 234 800 236.2C817.7 238.3 835.3 236.7 853.2 227.7C871 218.7 889 202.3 906.8 201.8C924.7 201.3 942.3 216.7 951.2 224.3L960 232L960 0L951.2 0C942.3 0 924.7 0 906.8 0C889 0 871 0 853.2 0C835.3 0 817.7 0 800 0C782.3 0 764.7 0 746.8 0C729 0 711 0 693.2 0C675.3 0 657.7 0 640 0C622.3 0 604.7 0 586.8 0C569 0 551 0 533.2 0C515.3 0 497.7 0 480 0C462.3 0 444.7 0 426.8 0C409 0 391 0 373.2 0C355.3 0 337.7 0 320 0C302.3 0 284.7 0 266.8 0C249 0 231 0 213.2 0C195.3 0 177.7 0 160 0C142.3 0 124.7 0 106.8 0C89 0 71 0 53.2 0C35.3 0 17.7 0 8.8 0L0 0Z" fill="#374d6e"></path><path d="M0 191L8.8 188.8C17.7 186.7 35.3 182.3 53.2 180C71 177.7 89 177.3 106.8 175.2C124.7 173 142.3 169 160 167.7C177.7 166.3 195.3 167.7 213.2 163.8C231 160 249 151 266.8 156.3C284.7 161.7 302.3 181.3 320 189C337.7 196.7 355.3 192.3 373.2 191.2C391 190 409 192 426.8 195.8C444.7 199.7 462.3 205.3 480 207.2C497.7 209 515.3 207 533.2 208.3C551 209.7 569 214.3 586.8 205.8C604.7 197.3 622.3 175.7 640 171.8C657.7 168 675.3 182 693.2 188C711 194 729 192 746.8 194.8C764.7 197.7 782.3 205.3 800 207.8C817.7 210.3 835.3 207.7 853.2 205.7C871 203.7 889 202.3 906.8 192.5C924.7 182.7 942.3 164.3 951.2 155.2L960 146L960 0L951.2 0C942.3 0 924.7 0 906.8 0C889 0 871 0 853.2 0C835.3 0 817.7 0 800 0C782.3 0 764.7 0 746.8 0C729 0 711 0 693.2 0C675.3 0 657.7 0 640 0C622.3 0 604.7 0 586.8 0C569 0 551 0 533.2 0C515.3 0 497.7 0 480 0C462.3 0 444.7 0 426.8 0C409 0 391 0 373.2 0C355.3 0 337.7 0 320 0C302.3 0 284.7 0 266.8 0C249 0 231 0 213.2 0C195.3 0 177.7 0 160 0C142.3 0 124.7 0 106.8 0C89 0 71 0 53.2 0C35.3 0 17.7 0 8.8 0L0 0Z" fill="#3f5f7e"></path><path d="M0 134L8.8 134.2C17.7 134.3 35.3 134.7 53.2 143.3C71 152 89 169 106.8 167.8C124.7 166.7 142.3 147.3 160 138.8C177.7 130.3 195.3 132.7 213.2 131.7C231 130.7 249 126.3 266.8 125.8C284.7 125.3 302.3 128.7 320 137.7C337.7 146.7 355.3 161.3 373.2 158.8C391 156.3 409 136.7 426.8 128.2C444.7 119.7 462.3 122.3 480 131.5C497.7 140.7 515.3 156.3 533.2 154.5C551 152.7 569 133.3 586.8 126.7C604.7 120 622.3 126 640 129.7C657.7 133.3 675.3 134.7 693.2 136.5C711 138.3 729 140.7 746.8 143.5C764.7 146.3 782.3 149.7 800 148.3C817.7 147 835.3 141 853.2 141.3C871 141.7 889 148.3 906.8 156.2C924.7 164 942.3 173 951.2 177.5L960 182L960 0L951.2 0C942.3 0 924.7 0 906.8 0C889 0 871 0 853.2 0C835.3 0 817.7 0 800 0C782.3 0 764.7 0 746.8 0C729 0 711 0 693.2 0C675.3 0 657.7 0 640 0C622.3 0 604.7 0 586.8 0C569 0 551 0 533.2 0C515.3 0 497.7 0 480 0C462.3 0 444.7 0 426.8 0C409 0 391 0 373.2 0C355.3 0 337.7 0 320 0C302.3 0 284.7 0 266.8 0C249 0 231 0 213.2 0C195.3 0 177.7 0 160 0C142.3 0 124.7 0 106.8 0C89 0 71 0 53.2 0C35.3 0 17.7 0 8.8 0L0 0Z" fill="#48718e"></path><path d="M0 85L8.8 90.5C17.7 96 35.3 107 53.2 118.2C71 129.3 89 140.7 106.8 145C124.7 149.3 142.3 146.7 160 138.7C177.7 130.7 195.3 117.3 213.2 109.5C231 101.7 249 99.3 266.8 100.8C284.7 102.3 302.3 107.7 320 108C337.7 108.3 355.3 103.7 373.2 102.3C391 101 409 103 426.8 109C444.7 115 462.3 125 480 126.2C497.7 127.3 515.3 119.7 533.2 113.7C551 107.7 569 103.3 586.8 108.8C604.7 114.3 622.3 129.7 640 138.8C657.7 148 675.3 151 693.2 148.7C711 146.3 729 138.7 746.8 135.3C764.7 132 782.3 133 800 129.2C817.7 125.3 835.3 116.7 853.2 117.7C871 118.7 889 129.3 906.8 135.5C924.7 141.7 942.3 143.3 951.2 144.2L960 145L960 0L951.2 0C942.3 0 924.7 0 906.8 0C889 0 871 0 853.2 0C835.3 0 817.7 0 800 0C782.3 0 764.7 0 746.8 0C729 0 711 0 693.2 0C675.3 0 657.7 0 640 0C622.3 0 604.7 0 586.8 0C569 0 551 0 533.2 0C515.3 0 497.7 0 480 0C462.3 0 444.7 0 426.8 0C409 0 391 0 373.2 0C355.3 0 337.7 0 320 0C302.3 0 284.7 0 266.8 0C249 0 231 0 213.2 0C195.3 0 177.7 0 160 0C142.3 0 124.7 0 106.8 0C89 0 71 0 53.2 0C35.3 0 17.7 0 8.8 0L0 0Z" fill="#54849c"></path><path d="M0 103L8.8 95.3C17.7 87.7 35.3 72.3 53.2 70.2C71 68 89 79 106.8 81.2C124.7 83.3 142.3 76.7 160 76.5C177.7 76.3 195.3 82.7 213.2 81.7C231 80.7 249 72.3 266.8 74.2C284.7 76 302.3 88 320 91C337.7 94 355.3 88 373.2 88C391 88 409 94 426.8 91.3C444.7 88.7 462.3 77.3 480 72.8C497.7 68.3 515.3 70.7 533.2 74.5C551 78.3 569 83.7 586.8 91.7C604.7 99.7 622.3 110.3 640 106.7C657.7 103 675.3 85 693.2 76.5C711 68 729 69 746.8 74.3C764.7 79.7 782.3 89.3 800 95.2C817.7 101 835.3 103 853.2 97C871 91 889 77 906.8 80.2C924.7 83.3 942.3 103.7 951.2 113.8L960 124L960 0L951.2 0C942.3 0 924.7 0 906.8 0C889 0 871 0 853.2 0C835.3 0 817.7 0 800 0C782.3 0 764.7 0 746.8 0C729 0 711 0 693.2 0C675.3 0 657.7 0 640 0C622.3 0 604.7 0 586.8 0C569 0 551 0 533.2 0C515.3 0 497.7 0 480 0C462.3 0 444.7 0 426.8 0C409 0 391 0 373.2 0C355.3 0 337.7 0 320 0C302.3 0 284.7 0 266.8 0C249 0 231 0 213.2 0C195.3 0 177.7 0 160 0C142.3 0 124.7 0 106.8 0C89 0 71 0 53.2 0C35.3 0 17.7 0 8.8 0L0 0Z" fill="#6197ab"></path><path d="M0 39L8.8 41.2C17.7 43.3 35.3 47.7 53.2 47.2C71 46.7 89 41.3 106.8 47.8C124.7 54.3 142.3 72.7 160 74.8C177.7 77 195.3 63 213.2 55.5C231 48 249 47 266.8 47.7C284.7 48.3 302.3 50.7 320 58.5C337.7 66.3 355.3 79.7 373.2 77.8C391 76 409 59 426.8 48.3C444.7 37.7 462.3 33.3 480 40.7C497.7 48 515.3 67 533.2 69.5C551 72 569 58 586.8 58.2C604.7 58.3 622.3 72.7 640 75.7C657.7 78.7 675.3 70.3 693.2 65C711 59.7 729 57.3 746.8 56.3C764.7 55.3 782.3 55.7 800 57.8C817.7 60 835.3 64 853.2 69.3C871 74.7 889 81.3 906.8 79C924.7 76.7 942.3 65.3 951.2 59.7L960 54L960 0L951.2 0C942.3 0 924.7 0 906.8 0C889 0 871 0 853.2 0C835.3 0 817.7 0 800 0C782.3 0 764.7 0 746.8 0C729 0 711 0 693.2 0C675.3 0 657.7 0 640 0C622.3 0 604.7 0 586.8 0C569 0 551 0 533.2 0C515.3 0 497.7 0 480 0C462.3 0 444.7 0 426.8 0C409 0 391 0 373.2 0C355.3 0 337.7 0 320 0C302.3 0 284.7 0 266.8 0C249 0 231 0 213.2 0C195.3 0 177.7 0 160 0C142.3 0 124.7 0 106.8 0C89 0 71 0 53.2 0C35.3 0 17.7 0 8.8 0L0 0Z" fill="#71aab8"></path><path d="M0 0L8.8 9.3C17.7 18.7 35.3 37.3 53.2 45.8C71 54.3 89 52.7 106.8 52.3C124.7 52 142.3 53 160 50.8C177.7 48.7 195.3 43.3 213.2 43.3C231 43.3 249 48.7 266.8 46.5C284.7 44.3 302.3 34.7 320 32.3C337.7 30 355.3 35 373.2 40.3C391 45.7 409 51.3 426.8 48.7C444.7 46 462.3 35 480 29.8C497.7 24.7 515.3 25.3 533.2 27.2C551 29 569 32 586.8 30.8C604.7 29.7 622.3 24.3 640 18.5C657.7 12.7 675.3 6.3 693.2 11.8C711 17.3 729 34.7 746.8 35.3C764.7 36 782.3 20 800 16.3C817.7 12.7 835.3 21.3 853.2 24.5C871 27.7 889 25.3 906.8 26C924.7 26.7 942.3 30.3 951.2 32.2L960 34L960 0L951.2 0C942.3 0 924.7 0 906.8 0C889 0 871 0 853.2 0C835.3 0 817.7 0 800 0C782.3 0 764.7 0 746.8 0C729 0 711 0 693.2 0C675.3 0 657.7 0 640 0C622.3 0 604.7 0 586.8 0C569 0 551 0 533.2 0C515.3 0 497.7 0 480 0C462.3 0 444.7 0 426.8 0C409 0 391 0 373.2 0C355.3 0 337.7 0 320 0C302.3 0 284.7 0 266.8 0C249 0 231 0 213.2 0C195.3 0 177.7 0 160 0C142.3 0 124.7 0 106.8 0C89 0 71 0 53.2 0C35.3 0 17.7 0 8.8 0L0 0Z" fill="#83bdc5"></path></svg>