<svg id="visual" viewBox="0 0 960 540" width="960" height="540" xmlns="http://www.w3.org/2000/svg" xmlns:xlink="http://www.w3.org/1999/xlink" version="1.1"><rect x="0" y="0" width="960" height="540" fill="#001220"></rect><path d="M0 378L8 391C16 404 32 430 48 441.7C64 453.3 80 450.7 96 438.8C112 427 128 406 144 399.8C160 393.7 176 402.3 192 411.2C208 420 224 429 240 420.3C256 411.7 272 385.3 288 384C304 382.7 320 406.3 336 419.5C352 432.7 368 435.3 384 438.5C400 441.7 416 445.3 432 450.2C448 455 464 461 480 461.3C496 461.7 512 456.3 528 437.8C544 419.3 560 387.7 576 375.5C592 363.3 608 370.7 624 379C640 387.3 656 396.7 672 405.8C688 415 704 424 720 422.5C736 421 752 409 768 406.5C784 404 800 411 816 413.3C832 415.7 848 413.3 864 415C880 416.7 896 422.3 912 416.8C928 411.3 944 394.7 952 386.3L960 378L960 0L952 0C944 0 928 0 912 0C896 0 880 0 864 0C848 0 832 0 816 0C800 0 784 0 768 0C752 0 736 0 720 0C704 0 688 0 672 0C656 0 640 0 624 0C608 0 592 0 576 0C560 0 544 0 528 0C512 0 496 0 480 0C464 0 448 0 432 0C416 0 400 0 384 0C368 0 352 0 336 0C320 0 304 0 288 0C272 0 256 0 240 0C224 0 208 0 192 0C176 0 160 0 144 0C128 0 112 0 96 0C80 0 64 0 48 0C32 0 16 0 8 0L0 0Z" fill="#1d0827"></path><path d="M0 297L8 299.8C16 302.7 32 308.3 48 313.7C64 319 80 324 96 328.3C112 332.7 128 336.3 144 335.8C160 335.3 176 330.7 192 318.7C208 306.7 224 287.3 240 294.2C256 301 272 334 288 349.3C304 364.7 320 362.3 336 353.2C352 344 368 328 384 327.2C400 326.3 416 340.7 432 343.7C448 346.7 464 338.3 480 331.5C496 324.7 512 319.3 528 323.2C544 327 560 340 576 331.2C592 322.3 608 291.7 624 291.5C640 291.3 656 321.7 672 330.3C688 339 704 326 720 324.2C736 322.3 752 331.7 768 338.2C784 344.7 800 348.3 816 344.7C832 341 848 330 864 319.8C880 309.7 896 300.3 912 302.2C928 304 944 317 952 323.5L960 330L960 0L952 0C944 0 928 0 912 0C896 0 880 0 864 0C848 0 832 0 816 0C800 0 784 0 768 0C752 0 736 0 720 0C704 0 688 0 672 0C656 0 640 0 624 0C608 0 592 0 576 0C560 0 544 0 528 0C512 0 496 0 480 0C464 0 448 0 432 0C416 0 400 0 384 0C368 0 352 0 336 0C320 0 304 0 288 0C272 0 256 0 240 0C224 0 208 0 192 0C176 0 160 0 144 0C128 0 112 0 96 0C80 0 64 0 48 0C32 0 16 0 8 0L0 0Z" fill="#334162"></path><path d="M0 169L8 179C16 189 32 209 48 213.5C64 218 80 207 96 195.8C112 184.7 128 173.3 144 170C160 166.7 176 171.3 192 179.7C208 188 224 200 240 209.7C256 219.3 272 226.7 288 227.5C304 228.3 320 222.7 336 227.5C352 232.3 368 247.7 384 253.7C400 259.7 416 256.3 432 248.8C448 241.3 464 229.7 480 220.2C496 210.7 512 203.3 528 209C544 214.7 560 233.3 576 240.3C592 247.3 608 242.7 624 229C640 215.3 656 192.7 672 188.8C688 185 704 200 720 214.7C736 229.3 752 243.7 768 235C784 226.3 800 194.7 816 192.7C832 190.7 848 218.3 864 229.7C880 241 896 236 912 230.7C928 225.3 944 219.7 952 216.8L960 214L960 0L952 0C944 0 928 0 912 0C896 0 880 0 864 0C848 0 832 0 816 0C800 0 784 0 768 0C752 0 736 0 720 0C704 0 688 0 672 0C656 0 640 0 624 0C608 0 592 0 576 0C560 0 544 0 528 0C512 0 496 0 480 0C464 0 448 0 432 0C416 0 400 0 384 0C368 0 352 0 336 0C320 0 304 0 288 0C272 0 256 0 240 0C224 0 208 0 192 0C176 0 160 0 144 0C128 0 112 0 96 0C80 0 64 0 48 0C32 0 16 0 8 0L0 0Z" fill="#507e98"></path><path d="M0 110L8 116.5C16 123 32 136 48 131.5C64 127 80 105 96 89.3C112 73.7 128 64.3 144 62.5C160 60.7 176 66.3 192 70C208 73.7 224 75.3 240 73.2C256 71 272 65 288 71C304 77 320 95 336 95C352 95 368 77 384 68.7C400 60.3 416 61.7 432 76.7C448 91.7 464 120.3 480 136.7C496 153 512 157 528 154C544 151 560 141 576 129.7C592 118.3 608 105.7 624 109.7C640 113.7 656 134.3 672 129.2C688 124 704 93 720 90.8C736 88.7 752 115.3 768 115.5C784 115.7 800 89.3 816 91.8C832 94.3 848 125.7 864 130.7C880 135.7 896 114.3 912 107.2C928 100 944 107 952 110.5L960 114L960 0L952 0C944 0 928 0 912 0C896 0 880 0 864 0C848 0 832 0 816 0C800 0 784 0 768 0C752 0 736 0 720 0C704 0 688 0 672 0C656 0 640 0 624 0C608 0 592 0 576 0C560 0 544 0 528 0C512 0 496 0 480 0C464 0 448 0 432 0C416 0 400 0 384 0C368 0 352 0 336 0C320 0 304 0 288 0C272 0 256 0 240 0C224 0 208 0 192 0C176 0 160 0 144 0C128 0 112 0 96 0C80 0 64 0 48 0C32 0 16 0 8 0L0 0Z" fill="#83bdc5"></path></svg>