<svg id="visual" viewBox="0 0 960 540" width="960" height="540" xmlns="http://www.w3.org/2000/svg" xmlns:xlink="http://www.w3.org/1999/xlink" version="1.1"><rect x="0" y="0" width="960" height="540" fill="#001220"></rect><path d="M0 468L7 472.7C14 477.3 28 486.7 41.8 489.5C55.7 492.3 69.3 488.7 83.2 489.2C97 489.7 111 494.3 125 489.2C139 484 153 469 167 453.8C181 438.7 195 423.3 208.8 431.2C222.7 439 236.3 470 250.2 466C264 462 278 423 292 419.3C306 415.7 320 447.3 334 455.7C348 464 362 449 375.8 446.7C389.7 444.3 403.3 454.7 417.2 460C431 465.3 445 465.7 459 454.2C473 442.7 487 419.3 501 420.5C515 421.7 529 447.3 542.8 450.8C556.7 454.3 570.3 435.7 584.2 421.2C598 406.7 612 396.3 626 399.3C640 402.3 654 418.7 668 422.7C682 426.7 696 418.3 709.8 422.5C723.7 426.7 737.3 443.3 751.2 459.3C765 475.3 779 490.7 793 498C807 505.3 821 504.7 835 495.8C849 487 863 470 876.8 467.5C890.7 465 904.3 477 918.2 466C932 455 946 421 953 404L960 387L960 541L953 541C946 541 932 541 918.2 541C904.3 541 890.7 541 876.8 541C863 541 849 541 835 541C821 541 807 541 793 541C779 541 765 541 751.2 541C737.3 541 723.7 541 709.8 541C696 541 682 541 668 541C654 541 640 541 626 541C612 541 598 541 584.2 541C570.3 541 556.7 541 542.8 541C529 541 515 541 501 541C487 541 473 541 459 541C445 541 431 541 417.2 541C403.3 541 389.7 541 375.8 541C362 541 348 541 334 541C320 541 306 541 292 541C278 541 264 541 250.2 541C236.3 541 222.7 541 208.8 541C195 541 181 541 167 541C153 541 139 541 125 541C111 541 97 541 83.2 541C69.3 541 55.7 541 41.8 541C28 541 14 541 7 541L0 541Z" fill="#69dbfa"></path><path d="M0 424L7 432.8C14 441.7 28 459.3 41.8 464.8C55.7 470.3 69.3 463.7 83.2 459.8C97 456 111 455 125 460.5C139 466 153 478 167 474.3C181 470.7 195 451.3 208.8 439C222.7 426.7 236.3 421.3 250.2 429C264 436.7 278 457.3 292 456.8C306 456.3 320 434.7 334 423.5C348 412.3 362 411.7 375.8 418.7C389.7 425.7 403.3 440.3 417.2 456.3C431 472.3 445 489.7 459 495.2C473 500.7 487 494.3 501 492.5C515 490.7 529 493.3 542.8 480.3C556.7 467.3 570.3 438.7 584.2 426C598 413.3 612 416.7 626 424C640 431.3 654 442.7 668 450.2C682 457.7 696 461.3 709.8 469C723.7 476.7 737.3 488.3 751.2 484.7C765 481 779 462 793 457C807 452 821 461 835 455.8C849 450.7 863 431.3 876.8 430.8C890.7 430.3 904.3 448.7 918.2 453.7C932 458.7 946 450.3 953 446.2L960 442L960 541L953 541C946 541 932 541 918.2 541C904.3 541 890.7 541 876.8 541C863 541 849 541 835 541C821 541 807 541 793 541C779 541 765 541 751.2 541C737.3 541 723.7 541 709.8 541C696 541 682 541 668 541C654 541 640 541 626 541C612 541 598 541 584.2 541C570.3 541 556.7 541 542.8 541C529 541 515 541 501 541C487 541 473 541 459 541C445 541 431 541 417.2 541C403.3 541 389.7 541 375.8 541C362 541 348 541 334 541C320 541 306 541 292 541C278 541 264 541 250.2 541C236.3 541 222.7 541 208.8 541C195 541 181 541 167 541C153 541 139 541 125 541C111 541 97 541 83.2 541C69.3 541 55.7 541 41.8 541C28 541 14 541 7 541L0 541Z" fill="#6aceff"></path><path d="M0 439L7 440.5C14 442 28 445 41.8 455C55.7 465 69.3 482 83.2 489.8C97 497.7 111 496.3 125 492.8C139 489.3 153 483.7 167 486.7C181 489.7 195 501.3 208.8 504.5C222.7 507.7 236.3 502.3 250.2 497.7C264 493 278 489 292 486.2C306 483.3 320 481.7 334 486.3C348 491 362 502 375.8 506C389.7 510 403.3 507 417.2 498.5C431 490 445 476 459 470.3C473 464.7 487 467.3 501 470.3C515 473.3 529 476.7 542.8 483.5C556.7 490.3 570.3 500.7 584.2 504.2C598 507.7 612 504.3 626 494.5C640 484.7 654 468.3 668 455.7C682 443 696 434 709.8 442.8C723.7 451.7 737.3 478.3 751.2 489.2C765 500 779 495 793 490.8C807 486.7 821 483.3 835 482C849 480.7 863 481.3 876.8 486.2C890.7 491 904.3 500 918.2 500.7C932 501.3 946 493.7 953 489.8L960 486L960 541L953 541C946 541 932 541 918.2 541C904.3 541 890.7 541 876.8 541C863 541 849 541 835 541C821 541 807 541 793 541C779 541 765 541 751.2 541C737.3 541 723.7 541 709.8 541C696 541 682 541 668 541C654 541 640 541 626 541C612 541 598 541 584.2 541C570.3 541 556.7 541 542.8 541C529 541 515 541 501 541C487 541 473 541 459 541C445 541 431 541 417.2 541C403.3 541 389.7 541 375.8 541C362 541 348 541 334 541C320 541 306 541 292 541C278 541 264 541 250.2 541C236.3 541 222.7 541 208.8 541C195 541 181 541 167 541C153 541 139 541 125 541C111 541 97 541 83.2 541C69.3 541 55.7 541 41.8 541C28 541 14 541 7 541L0 541Z" fill="#84beff"></path><path d="M0 438L7 437.8C14 437.7 28 437.3 41.8 446.2C55.7 455 69.3 473 83.2 477.3C97 481.7 111 472.3 125 476.5C139 480.7 153 498.3 167 507.5C181 516.7 195 517.3 208.8 512.2C222.7 507 236.3 496 250.2 494C264 492 278 499 292 501C306 503 320 500 334 496.5C348 493 362 489 375.8 480C389.7 471 403.3 457 417.2 454.3C431 451.7 445 460.3 459 466.3C473 472.3 487 475.7 501 473.5C515 471.3 529 463.7 542.8 458.5C556.7 453.3 570.3 450.7 584.2 452.7C598 454.7 612 461.3 626 472.5C640 483.7 654 499.3 668 501.5C682 503.7 696 492.3 709.8 482C723.7 471.7 737.3 462.3 751.2 465.8C765 469.3 779 485.7 793 495.8C807 506 821 510 835 501.3C849 492.7 863 471.3 876.8 466.5C890.7 461.7 904.3 473.3 918.2 484.7C932 496 946 507 953 512.5L960 518L960 541L953 541C946 541 932 541 918.2 541C904.3 541 890.7 541 876.8 541C863 541 849 541 835 541C821 541 807 541 793 541C779 541 765 541 751.2 541C737.3 541 723.7 541 709.8 541C696 541 682 541 668 541C654 541 640 541 626 541C612 541 598 541 584.2 541C570.3 541 556.7 541 542.8 541C529 541 515 541 501 541C487 541 473 541 459 541C445 541 431 541 417.2 541C403.3 541 389.7 541 375.8 541C362 541 348 541 334 541C320 541 306 541 292 541C278 541 264 541 250.2 541C236.3 541 222.7 541 208.8 541C195 541 181 541 167 541C153 541 139 541 125 541C111 541 97 541 83.2 541C69.3 541 55.7 541 41.8 541C28 541 14 541 7 541L0 541Z" fill="#a8abfe"></path><path d="M0 491L7 488C14 485 28 479 41.8 477.8C55.7 476.7 69.3 480.3 83.2 482.8C97 485.3 111 486.7 125 488.7C139 490.7 153 493.3 167 489.3C181 485.3 195 474.7 208.8 469.7C222.7 464.7 236.3 465.3 250.2 464C264 462.7 278 459.3 292 468.5C306 477.7 320 499.3 334 508C348 516.7 362 512.3 375.8 507.7C389.7 503 403.3 498 417.2 500C431 502 445 511 459 514.8C473 518.7 487 517.3 501 509.3C515 501.3 529 486.7 542.8 487.5C556.7 488.3 570.3 504.7 584.2 513.2C598 521.7 612 522.3 626 515.7C640 509 654 495 668 488.8C682 482.7 696 484.3 709.8 480.8C723.7 477.3 737.3 468.7 751.2 473.5C765 478.3 779 496.7 793 500C807 503.3 821 491.7 835 493C849 494.3 863 508.7 876.8 505.8C890.7 503 904.3 483 918.2 474.8C932 466.7 946 470.3 953 472.2L960 474L960 541L953 541C946 541 932 541 918.2 541C904.3 541 890.7 541 876.8 541C863 541 849 541 835 541C821 541 807 541 793 541C779 541 765 541 751.2 541C737.3 541 723.7 541 709.8 541C696 541 682 541 668 541C654 541 640 541 626 541C612 541 598 541 584.2 541C570.3 541 556.7 541 542.8 541C529 541 515 541 501 541C487 541 473 541 459 541C445 541 431 541 417.2 541C403.3 541 389.7 541 375.8 541C362 541 348 541 334 541C320 541 306 541 292 541C278 541 264 541 250.2 541C236.3 541 222.7 541 208.8 541C195 541 181 541 167 541C153 541 139 541 125 541C111 541 97 541 83.2 541C69.3 541 55.7 541 41.8 541C28 541 14 541 7 541L0 541Z" fill="#cb95e8"></path><path d="M0 496L7 497.5C14 499 28 502 41.8 505C55.7 508 69.3 511 83.2 508C97 505 111 496 125 498C139 500 153 513 167 518.5C181 524 195 522 208.8 517.3C222.7 512.7 236.3 505.3 250.2 497.7C264 490 278 482 292 477.5C306 473 320 472 334 476.8C348 481.7 362 492.3 375.8 500.3C389.7 508.3 403.3 513.7 417.2 511.5C431 509.3 445 499.7 459 491.7C473 483.7 487 477.3 501 475.8C515 474.3 529 477.7 542.8 484C556.7 490.3 570.3 499.7 584.2 499C598 498.3 612 487.7 626 487.3C640 487 654 497 668 497.2C682 497.3 696 487.7 709.8 488.2C723.7 488.7 737.3 499.3 751.2 498.2C765 497 779 484 793 484.2C807 484.3 821 497.7 835 506.3C849 515 863 519 876.8 516C890.7 513 904.3 503 918.2 503.2C932 503.3 946 513.7 953 518.8L960 524L960 541L953 541C946 541 932 541 918.2 541C904.3 541 890.7 541 876.8 541C863 541 849 541 835 541C821 541 807 541 793 541C779 541 765 541 751.2 541C737.3 541 723.7 541 709.8 541C696 541 682 541 668 541C654 541 640 541 626 541C612 541 598 541 584.2 541C570.3 541 556.7 541 542.8 541C529 541 515 541 501 541C487 541 473 541 459 541C445 541 431 541 417.2 541C403.3 541 389.7 541 375.8 541C362 541 348 541 334 541C320 541 306 541 292 541C278 541 264 541 250.2 541C236.3 541 222.7 541 208.8 541C195 541 181 541 167 541C153 541 139 541 125 541C111 541 97 541 83.2 541C69.3 541 55.7 541 41.8 541C28 541 14 541 7 541L0 541Z" fill="#e57ec6"></path><path d="M0 509L7 511.8C14 514.7 28 520.3 41.8 517.7C55.7 515 69.3 504 83.2 500.7C97 497.3 111 501.7 125 506.8C139 512 153 518 167 515.5C181 513 195 502 208.8 499.3C222.7 496.7 236.3 502.3 250.2 504.7C264 507 278 506 292 507.2C306 508.3 320 511.7 334 509C348 506.3 362 497.7 375.8 495.2C389.7 492.7 403.3 496.3 417.2 500C431 503.7 445 507.3 459 511.2C473 515 487 519 501 521C515 523 529 523 542.8 518.8C556.7 514.7 570.3 506.3 584.2 505.3C598 504.3 612 510.7 626 511C640 511.3 654 505.7 668 503.2C682 500.7 696 501.3 709.8 506.2C723.7 511 737.3 520 751.2 522.5C765 525 779 521 793 520.7C807 520.3 821 523.7 835 523.7C849 523.7 863 520.3 876.8 516C890.7 511.7 904.3 506.3 918.2 507.2C932 508 946 515 953 518.5L960 522L960 541L953 541C946 541 932 541 918.2 541C904.3 541 890.7 541 876.8 541C863 541 849 541 835 541C821 541 807 541 793 541C779 541 765 541 751.2 541C737.3 541 723.7 541 709.8 541C696 541 682 541 668 541C654 541 640 541 626 541C612 541 598 541 584.2 541C570.3 541 556.7 541 542.8 541C529 541 515 541 501 541C487 541 473 541 459 541C445 541 431 541 417.2 541C403.3 541 389.7 541 375.8 541C362 541 348 541 334 541C320 541 306 541 292 541C278 541 264 541 250.2 541C236.3 541 222.7 541 208.8 541C195 541 181 541 167 541C153 541 139 541 125 541C111 541 97 541 83.2 541C69.3 541 55.7 541 41.8 541C28 541 14 541 7 541L0 541Z" fill="#f26c9b"></path><path d="M0 509L7 511.8C14 514.7 28 520.3 41.8 519.8C55.7 519.3 69.3 512.7 83.2 513.5C97 514.3 111 522.7 125 522.8C139 523 153 515 167 515.8C181 516.7 195 526.3 208.8 528.5C222.7 530.7 236.3 525.3 250.2 524C264 522.7 278 525.3 292 524C306 522.7 320 517.3 334 513.7C348 510 362 508 375.8 509.2C389.7 510.3 403.3 514.7 417.2 519.2C431 523.7 445 528.3 459 526.8C473 525.3 487 517.7 501 517C515 516.3 529 522.7 542.8 525.2C556.7 527.7 570.3 526.3 584.2 526.8C598 527.3 612 529.7 626 530C640 530.3 654 528.7 668 526.2C682 523.7 696 520.3 709.8 520.8C723.7 521.3 737.3 525.7 751.2 527.2C765 528.7 779 527.3 793 528.5C807 529.7 821 533.3 835 532.8C849 532.3 863 527.7 876.8 525.7C890.7 523.7 904.3 524.3 918.2 523.7C932 523 946 521 953 520L960 519L960 541L953 541C946 541 932 541 918.2 541C904.3 541 890.7 541 876.8 541C863 541 849 541 835 541C821 541 807 541 793 541C779 541 765 541 751.2 541C737.3 541 723.7 541 709.8 541C696 541 682 541 668 541C654 541 640 541 626 541C612 541 598 541 584.2 541C570.3 541 556.7 541 542.8 541C529 541 515 541 501 541C487 541 473 541 459 541C445 541 431 541 417.2 541C403.3 541 389.7 541 375.8 541C362 541 348 541 334 541C320 541 306 541 292 541C278 541 264 541 250.2 541C236.3 541 222.7 541 208.8 541C195 541 181 541 167 541C153 541 139 541 125 541C111 541 97 541 83.2 541C69.3 541 55.7 541 41.8 541C28 541 14 541 7 541L0 541Z" fill="#ef626c"></path></svg>