<svg id="visual" viewBox="0 0 960 540" width="960" height="540" xmlns="http://www.w3.org/2000/svg" xmlns:xlink="http://www.w3.org/1999/xlink" version="1.1"><path d="M0 60L53 33L107 55L160 55L213 50L267 55L320 33L373 39L427 12L480 66L533 39L587 44L640 66L693 66L747 71L800 66L853 60L907 12L960 23L960 0L907 0L853 0L800 0L747 0L693 0L640 0L587 0L533 0L480 0L427 0L373 0L320 0L267 0L213 0L160 0L107 0L53 0L0 0Z" fill="#183f44"></path><path d="M0 125L53 104L107 190L160 195L213 125L267 174L320 152L373 195L427 195L480 136L533 217L587 131L640 136L693 104L747 163L800 222L853 114L907 152L960 98L960 21L907 10L853 58L800 64L747 69L693 64L640 64L587 42L533 37L480 64L427 10L373 37L320 31L267 53L213 48L160 53L107 53L53 31L0 58Z" fill="#014b4a"></path><path d="M0 357L53 347L107 260L160 260L213 217L267 314L320 325L373 309L427 266L480 239L533 282L587 293L640 260L693 320L747 287L800 303L853 303L907 298L960 309L960 96L907 150L853 112L800 220L747 161L693 102L640 134L587 129L533 215L480 134L427 193L373 193L320 150L267 172L213 123L160 193L107 188L53 102L0 123Z" fill="#00574b"></path><path d="M0 444L53 379L107 309L160 336L213 287L267 406L320 357L373 390L427 347L480 314L533 368L587 330L640 341L693 374L747 347L800 352L853 341L907 379L960 379L960 307L907 296L853 301L800 301L747 285L693 318L640 258L587 291L533 280L480 237L427 264L373 307L320 323L267 312L213 215L160 258L107 258L53 345L0 355Z" fill="#006245"></path><path d="M0 471L53 428L107 374L160 390L213 384L267 449L320 401L373 406L427 374L480 395L533 465L587 384L640 422L693 411L747 390L800 433L853 374L907 433L960 438L960 377L907 377L853 339L800 350L747 345L693 372L640 339L587 328L533 366L480 312L427 345L373 388L320 355L267 404L213 285L160 334L107 307L53 377L0 442Z" fill="#216c39"></path><path d="M0 503L53 503L107 471L160 503L213 487L267 519L320 498L373 492L427 487L480 492L533 492L587 476L640 530L693 471L747 476L800 509L853 519L907 492L960 471L960 436L907 431L853 372L800 431L747 388L693 409L640 420L587 382L533 463L480 393L427 372L373 404L320 399L267 447L213 382L160 388L107 372L53 426L0 469Z" fill="#3f7528"></path><path d="M0 541L53 541L107 541L160 541L213 541L267 541L320 541L373 541L427 541L480 541L533 541L587 541L640 541L693 541L747 541L800 541L853 541L907 541L960 541L960 469L907 490L853 517L800 507L747 474L693 469L640 528L587 474L533 490L480 490L427 485L373 490L320 496L267 517L213 485L160 501L107 469L53 501L0 501Z" fill="#5e7c0d"></path></svg>